<svg width="114" height="114" viewBox="0 0 114 114" fill="none" xmlns="http://www.w3.org/2000/svg">
<path d="M20.1101 61.7201C17.9301 60.9701 16.0801 59.4801 14.9001 57.4901C14.7101 57.0301 14.8001 56.5001 15.1401 56.1301C16.6701 54.4901 21.1701 49.7801 21.1701 36.0701V29.2301C21.2801 18.7001 29.7901 10.2001 40.3201 10.0801C50.8501 10.2001 59.3502 18.7001 59.4701 29.2301V36.0701C59.4701 49.7801 63.9701 54.4901 65.5001 56.1301C65.8401 56.5001 65.9301 57.0301 65.7401 57.4901C64.5601 59.4701 62.7101 60.9701 60.5301 61.7201H20.1101Z" fill="#161616"/>
<path d="M57.9 61.1002L48.27 59.7402H32.36L22.73 61.1002C15.93 61.9902 10.6 67.3702 9.76997 74.1802L8.44997 90.8902C8.29997 92.7802 9.69997 94.4402 11.6 94.5902C11.69 94.5902 11.79 94.6002 11.88 94.6002H53.08L68.39 67.4902C65.91 64.0202 62.13 61.7102 57.91 61.1002H57.9Z" fill="#604CA8"/>
<path d="M58.9001 67.4902L53.0601 79.2902L40.3001 94.6002L25.1801 76.4502C24.6801 75.8602 24.6401 75.0202 25.0701 74.3802L27.5401 70.6802L22.9801 69.5502C22.0401 69.3102 21.4801 68.3502 21.7201 67.4102C21.7201 67.3702 21.7401 67.3302 21.7501 67.3002L23.8701 60.9402L32.3401 59.7402H48.2501L56.7201 60.9402L58.8401 67.3002L58.8901 67.4902H58.9001Z" fill="#8065E0"/>
<path d="M47.7599 67.4899L40.3099 86.6199L32.8599 67.4899L33.9299 65.8999H46.6899L47.7599 67.4899Z" fill="#F3F9FF"/>
<path d="M50.6402 60.0798L47.7502 67.4898H32.8602L29.9702 60.0798L32.3502 59.7498C33.2602 59.6198 33.9302 58.8498 33.9302 57.9298V55.7598H46.6902V57.9298C46.6902 58.8398 47.3602 59.6198 48.2702 59.7498L50.6502 60.0798H50.6402Z" fill="#F3CB9D"/>
<path d="M59.4302 35.74C59.6102 38 57.9302 39.97 55.6702 40.15C55.5602 40.15 55.4502 40.16 55.3402 40.16C55.3402 40.16 55.3402 54.25 41.9002 57.72C40.8502 57.99 39.7502 57.99 38.7002 57.72C25.2602 54.25 25.2602 40.16 25.2602 40.16C23.0002 40.16 21.1702 38.34 21.1602 36.09C21.1602 36 21.1602 35.91 21.1602 35.82C21.3602 33.61 23.2402 31.93 25.4602 31.97C35.8402 31.93 40.5102 28.53 43.0302 25.82C43.8602 24.95 45.2402 24.92 46.1002 25.75C46.2902 25.93 46.4402 26.14 46.5502 26.37C48.1502 29.73 51.5102 31.9 55.2302 31.98C57.3802 31.98 59.1802 33.61 59.4102 35.75L59.4302 35.74Z" fill="#F3CB9D"/>
<path d="M56.5198 67.4902H101.43C103.34 67.4902 104.88 68.9402 104.88 70.7402V99.9702C104.88 101.76 103.33 103.22 101.43 103.22H56.5198C54.6098 103.22 53.0698 101.77 53.0698 99.9702V70.7402C53.0698 68.9502 54.6198 67.4902 56.5198 67.4902Z" fill="#48A195"/>
<path d="M41.9002 82.5298V92.6898L40.3102 94.5998L38.7202 92.6898V82.5298L40.3102 86.6298L41.9002 82.5298Z" fill="#604CA8"/>
<path d="M63.3501 93.68V76.46H66.9901V83.56H74.3801V76.46H78.0101V93.68H74.3801V86.57H66.9901V93.68H63.3501Z" fill="white"/>
<path d="M82.3901 93.68V76.46H89.1801C90.4801 76.46 91.5901 76.69 92.5101 77.15C93.4301 77.61 94.1301 78.27 94.6201 79.11C95.1001 79.95 95.3501 80.94 95.3501 82.08C95.3501 83.22 95.1001 84.2 94.6101 85.03C94.1201 85.86 93.4001 86.48 92.4701 86.92C91.5401 87.36 90.4101 87.58 89.0901 87.58H84.5401V84.65H88.5001C89.1901 84.65 89.7701 84.56 90.2301 84.36C90.6901 84.17 91.0301 83.88 91.2601 83.5C91.4901 83.12 91.6001 82.65 91.6001 82.08C91.6001 81.51 91.4901 81.03 91.2601 80.63C91.0301 80.24 90.6901 79.94 90.2301 79.74C89.7701 79.53 89.1901 79.43 88.4901 79.43H86.0401V93.67H82.4001L82.3901 93.68ZM91.6801 85.85L95.9601 93.68H91.9401L87.7501 85.85H91.6801Z" fill="white"/>
</svg>
