<svg width="114" height="114" viewBox="0 0 114 114" fill="none" xmlns="http://www.w3.org/2000/svg">
<path d="M7.56982 44.4001L54.7598 74.4301C55.2998 74.8301 55.9398 75.0201 56.5698 75.0201C57.1998 75.0201 57.8398 74.8201 58.3798 74.4301L105.57 44.4001L58.4098 8.2701C57.3198 7.4601 55.8298 7.4601 54.7298 8.2701L7.56982 44.4001Z" fill="#41A5EE"/>
<path d="M87.1898 7.6499H25.9398C22.5698 7.6499 19.8198 10.3999 19.8198 13.7699V81.1499C19.8198 82.8399 21.1898 84.2099 22.8798 84.2099H90.2598C91.9498 84.2099 93.3198 82.8399 93.3198 81.1499V13.7799C93.3198 10.4099 90.5798 7.6599 87.1998 7.6599L87.1898 7.6499Z" fill="#D9EDFF"/>
<path d="M58.3798 74.4299C57.8398 74.8299 57.1998 75.0199 56.5698 75.0199C55.9398 75.0199 55.2998 74.8199 54.7598 74.4299L7.56982 44.3999V99.5199C7.56982 102.9 10.3098 105.64 13.6898 105.64H99.4398C102.82 105.64 105.56 102.9 105.56 99.5199V44.3999L58.3698 74.4299H58.3798Z" fill="#8065E0"/>
<path d="M99.4398 105.65H13.6898C10.2498 105.65 7.56982 102.96 7.56982 99.5301C7.56982 98.5601 8.03982 97.6401 8.81982 97.0601L54.7598 66.4401C55.2998 66.0401 55.9398 65.8501 56.5698 65.8501C57.1998 65.8501 57.8398 66.0501 58.3798 66.4401L104.32 97.0601C105.1 97.6401 105.57 98.5501 105.57 99.5301C105.57 102.97 102.88 105.65 99.4498 105.65H99.4398Z" fill="#604CA8"/>
<path d="M33.0797 21.8799C31.6397 21.8799 30.4697 22.8099 30.4697 23.9699C30.4697 25.1199 31.6397 26.0599 33.0797 26.0599H80.0497C81.4897 26.0599 82.6597 25.1299 82.6597 23.9699C82.6597 22.8099 81.4897 21.8799 80.0497 21.8799H33.0797Z" fill="#161616"/>
<path d="M33.0797 33.1201C31.6397 33.1201 30.4697 34.0501 30.4697 35.2101C30.4697 36.3601 31.6397 37.3001 33.0797 37.3001H80.0497C81.4897 37.3001 82.6597 36.3701 82.6597 35.2101C82.6597 34.0501 81.4897 33.1201 80.0497 33.1201H33.0797Z" fill="#161616"/>
<path d="M33.0797 44.3599C31.6397 44.3599 30.4697 45.2899 30.4697 46.4499C30.4697 47.5999 31.6397 48.5399 33.0797 48.5399H55.3497C56.7897 48.5399 57.9597 47.6099 57.9597 46.4499C57.9597 45.2899 56.7897 44.3599 55.3497 44.3599H33.0797Z" fill="#161616"/>
<path d="M62.1802 47.25L77.3802 50.85L108.6 73.43C109.92 74.39 110.79 75.81 111.04 77.42C111.29 79.03 110.9 80.64 109.93 81.95C107.96 84.64 104.16 85.23 101.46 83.28L70.2902 60.82L62.1802 47.25Z" fill="white"/>
<path d="M103.85 69.9302L108.6 73.4302C109.92 74.3902 110.79 75.8102 111.04 77.4202C111.29 79.0302 110.9 80.6402 109.93 81.9502C107.96 84.6402 104.16 85.2302 101.46 83.2802L96.7603 79.9002L103.85 69.9302Z" fill="#161616"/>
<path d="M62.1802 47.25L77.3802 50.85L70.2902 60.82L62.1802 47.25Z" fill="#161616"/>
</svg>
