<?xml version="1.0" encoding="UTF-8"?>
<svg id="Layer_1" data-name="Layer 1" xmlns="http://www.w3.org/2000/svg" viewBox="0 0 113.31 113.31">
  <defs>
    <style>
      .cls-1 {
        fill: #02b79f;
      }

      .cls-1, .cls-2, .cls-3, .cls-4, .cls-5 {
        stroke-width: 0px;
      }

      .cls-2 {
        fill: #8065e0;
      }

      .cls-3 {
        fill: #8bcaff;
      }

      .cls-4 {
        fill: #fff;
      }

      .cls-5 {
        fill: #22a7ff;
      }
    </style>
  </defs>
  <g>
    <path class="cls-3" d="M14.88,4.01c-1.89,0-3.43,1.4-3.43,3.11v43.58c0,1.71,1.54,3.11,3.43,3.11h34.3c1.89,0,3.43-1.4,3.43-3.11V16.46l-13.72-12.45H14.88Z"/>
    <path class="cls-5" d="M42.32,16.46h10.29l-13.72-12.45v9.34c0,1.71,1.54,3.11,3.43,3.11Z"/>
  </g>
  <g>
    <path class="cls-3" d="M64,4.01c-1.89,0-3.43,1.4-3.43,3.11v43.58c0,1.71,1.54,3.11,3.43,3.11h34.3c1.89,0,3.43-1.4,3.43-3.11V16.46l-13.72-12.45h-24.01Z"/>
    <path class="cls-5" d="M91.44,16.46h10.29l-13.72-12.45v9.34c0,1.71,1.54,3.11,3.43,3.11Z"/>
  </g>
  <path class="cls-4" d="M23.28,39.49l-5.6-19.23h5.14l2.9,12.6h.16l3.31-12.6h4.19l3.31,12.63h.16l2.91-12.63h5.13l-5.59,19.23h-4.48l-3.47-11.66h-.15l-3.47,11.66h-4.47Z"/>
  <g>
    <path class="cls-3" d="M14.88,58.69c-1.89,0-3.43,1.4-3.43,3.11v43.58c0,1.71,1.54,3.11,3.43,3.11h34.3c1.89,0,3.43-1.4,3.43-3.11v-34.24l-13.72-12.45H14.88Z"/>
    <path class="cls-5" d="M42.32,71.14h10.29l-13.72-12.45v9.34c0,1.71,1.54,3.11,3.43,3.11Z"/>
  </g>
  <path class="cls-4" d="M23.81,96v-19.23h7.94c1.44,0,2.68.28,3.73.84,1.05.56,1.86,1.34,2.43,2.34.57,1,.85,2.16.85,3.48s-.29,2.49-.87,3.48c-.58.99-1.4,1.76-2.47,2.31s-2.34.82-3.81.82h-4.9v-3.66h4.04c.7,0,1.29-.12,1.76-.37s.83-.59,1.08-1.03c.24-.44.37-.96.37-1.54s-.12-1.11-.37-1.54c-.24-.44-.6-.77-1.08-1.01-.48-.24-1.06-.36-1.76-.36h-2.29v15.49h-4.65Z"/>
  <g>
    <path class="cls-3" d="M64,58.69c-1.89,0-3.43,1.4-3.43,3.11v43.58c0,1.71,1.54,3.11,3.43,3.11h34.3c1.89,0,3.43-1.4,3.43-3.11v-34.24l-13.72-12.45h-24.01Z"/>
    <path class="cls-5" d="M91.44,71.14h10.29l-13.72-12.45v9.34c0,1.71,1.54,3.11,3.43,3.11Z"/>
  </g>
  <path class="cls-4" d="M77.48,78.32l3.51,6.08h.15l3.55-6.08h5.2l-5.8,9.62,5.99,9.62h-5.33l-3.61-6.14h-.15l-3.61,6.14h-5.3l5.96-9.62-5.81-9.62h5.24Z"/>
  <path class="cls-4" d="M71.1,46.03h0c-.4,0-.78-.13-1.11-.37-1.19-.89-1.35-1.89-1.28-2.57.21-1.86,2.51-3.81,6.85-5.8,1.72-3.77,3.36-8.42,4.33-12.3-1.14-2.49-2.25-5.71-1.44-7.6.28-.66.64-1.17,1.3-1.39.26-.09.92-.2,1.16-.2.58,0,1.08.74,1.44,1.2.34.43,1.1,1.34-.43,7.78,1.54,3.19,3.73,6.43,5.82,8.65,1.5-.27,2.79-.41,3.84-.41,1.79,0,2.88.42,3.32,1.28.37.71.22,1.54-.45,2.47-.64.89-1.52,1.36-2.54,1.36-1.39,0-3.01-.88-4.82-2.61-3.25.68-7.04,1.89-10.1,3.23-.96,2.03-1.87,3.66-2.73,4.86-1.17,1.64-2.18,2.41-3.19,2.41ZM74.15,40.16c-2.45,1.37-3.44,2.5-3.51,3.14-.01.11-.04.38.49.79.17-.05,1.17-.51,3.02-3.93ZM89.75,35.08c.93.72,1.16,1.08,1.77,1.08.27,0,1.03-.01,1.38-.5.17-.24.24-.39.26-.47-.14-.07-.33-.23-1.34-.23-.58,0-1.3.03-2.07.12ZM81.21,27.55c-.82,2.83-1.9,5.89-3.06,8.65,2.39-.93,4.99-1.74,7.43-2.31-1.54-1.79-3.09-4.03-4.37-6.34ZM80.51,17.87c-.11.04-1.52,2.01.11,3.68,1.09-2.42-.06-3.7-.11-3.68Z"/>
  <g>
    <path class="cls-1" d="M80.8,65.62c-.37.11-.73.25-1.07.43,4.78-12.47-.3-26.92-12.34-33.49-6.56-3.56-13.96-4.14-20.61-2.17s-12.56,6.46-16.13,13.02c-7.13,13.11-2.27,29.59,10.84,36.74,12.05,6.55,26.95,2.98,34.82-7.81.21,1.97,1.33,3.81,3.17,4.85l6.05-11.11c-1.52-.79-3.2-.9-4.72-.45ZM73.12,66.53c-1.4,2.58-3.26,4.74-5.43,6.46-2.16,1.72-4.62,2.98-7.23,3.75-5.23,1.54-11.04,1.1-16.19-1.7-5-2.71-8.62-7.21-10.23-12.66-1.61-5.45-1.01-11.2,1.72-16.19,2.71-5,7.22-8.63,12.67-10.23,5.45-1.61,11.2-1,16.18,1.72,10.29,5.61,14.11,18.55,8.51,28.85Z"/>
    <path class="cls-2" d="M103.29,75.76l-14.03-7.64-6.04,11.1,14.03,7.64c3.07,1.67,6.91.54,8.57-2.53,1.67-3.06.54-6.9-2.53-8.57Z"/>
  </g>
</svg>