<svg width="114" height="114" viewBox="0 0 114 114" fill="none" xmlns="http://www.w3.org/2000/svg">
<path d="M41.87 48.9398C40.55 52.0098 31.33 61.6798 32.21 71.3398C35.72 111.75 48.02 84.5198 66.47 94.6198C66.47 94.6198 99.41 76.1698 73.06 46.3098C65.59 35.7698 72.18 27.4198 67.35 20.3998C62.52 13.3698 54.17 12.9298 48.03 19.5198C41.88 26.1098 50.67 35.7698 41.88 48.9498" fill="#333333"/>
<path d="M74.3701 69.1399C74.3701 69.1399 78.32 61.2299 70.8601 55.5199C77.89 62.9899 73.5 69.5699 73.5 69.5699H72.18C71.7401 54.1999 67.7901 62.5399 62.0801 35.3099C68.6701 27.8399 55.9301 21.2599 55.9301 33.5499H51.9801C52.4201 23.0099 43.2001 28.2799 48.4701 35.7499C48.0301 51.9999 38.3701 58.5899 38.3701 70.0099C35.3001 62.0999 41.01 55.9599 41.01 55.9599C41.01 55.9599 33.1 62.5499 37.94 72.2099C42.77 81.8699 51.5601 79.6799 45.4101 84.0699C55.0701 90.6599 70.01 86.2699 69.57 72.2099C70.01 68.6999 79.23 70.0099 80.1101 70.8899C80.9901 71.7699 78.7901 69.1299 74.4001 69.1299M49.7801 34.8899C46.7101 34.0099 47.5801 30.0599 48.9001 30.0599C50.2201 30.0599 52.41 33.1299 49.7801 34.8899ZM58.1201 35.3299C55.92 32.2599 57.6801 29.1799 59.8801 29.6199C62.0801 30.0599 62.0801 35.3299 58.1201 35.3299Z" fill="#EEEEEE"/>
<path d="M37.9199 73.5399L47.1399 86.7199C51.9699 89.7899 49.3399 102.09 36.1599 95.9399C28.6899 93.7399 22.5399 94.1799 21.6699 90.2299C20.7999 86.2799 23.4299 85.8399 22.9899 84.0799C21.2299 74.4199 29.1399 79.2499 31.3299 74.4199C33.5199 69.5899 33.5299 67.3899 37.9199 73.5399ZM87.1099 79.6799C85.3499 77.0399 87.1099 72.2099 80.9599 72.6499C78.3199 77.9199 70.8599 83.1899 70.4199 72.6499C66.0299 72.6499 69.0999 83.1899 67.3499 88.0199C63.3999 99.8799 74.8199 100.76 79.6499 95.0499L91.0699 87.1399C91.9499 85.8199 93.2699 84.4999 87.1199 79.6699M46.6999 39.2799C45.3799 36.6399 51.5299 33.1299 53.7299 33.1299C55.9299 33.1299 58.9999 34.8899 62.0699 35.7699C65.1399 36.6499 63.8299 39.7199 62.9499 40.1599C62.0699 40.5999 57.2399 44.5499 53.7299 44.5499C50.2199 44.5499 49.3399 41.0399 46.6999 39.2799Z" fill="#22A7FF"/>
<path d="M87.1099 79.6799C85.3499 77.0399 87.1099 72.2099 80.9599 72.6499C78.3199 77.9199 70.8599 83.1899 70.4199 72.6499C66.0299 72.6499 69.0999 83.1899 67.3499 88.0199C63.3999 99.8799 74.8199 100.76 79.6499 95.0499L91.0699 87.1399C91.9499 85.8199 93.2699 84.4999 87.1199 79.6699M37.9199 73.5399L47.1399 86.7199C51.9699 89.7899 49.3399 102.09 36.1599 95.9399C28.6899 93.7399 22.5399 94.1799 21.6699 90.2299C20.7999 86.2799 23.4299 85.8399 22.9899 84.0799C21.2299 74.4199 29.1399 79.2499 31.3299 74.4199C33.5199 69.5899 33.5299 67.3899 37.9199 73.5399ZM46.6999 39.2799C45.3799 36.6399 51.5299 33.1299 53.7299 33.1299C55.9299 33.1299 58.9999 34.8899 62.0699 35.7699C65.1399 36.6499 63.8299 39.7199 62.9499 40.1599C62.0699 40.5999 57.2399 44.5499 53.7299 44.5499C50.2199 44.5499 49.3399 41.0399 46.6999 39.2799Z" stroke="#333333" stroke-width="0.44" stroke-miterlimit="8"/>
<path d="M46.6997 38.84C50.2097 41.48 54.1697 43.67 62.0697 37.52L46.6997 38.84Z" fill="white"/>
<path d="M46.6997 38.84C50.2097 41.48 54.1697 43.67 62.0697 37.52" stroke="#333333" stroke-width="0.44" stroke-miterlimit="8"/>
<path d="M51.5299 36.1999C50.6499 36.1999 51.9699 35.3199 52.4099 35.7599L51.5299 36.1999ZM55.4899 36.1999C55.9299 35.7599 55.0499 35.3199 54.1699 35.7599L55.4899 36.1999Z" fill="#333333"/>
</svg>
