<svg width="114" height="114" viewBox="0 0 114 114" fill="none" xmlns="http://www.w3.org/2000/svg">
<path d="M102.21 89.3701C102.27 89.3401 102.32 89.2901 102.35 89.2301C102.38 89.1701 102.4 89.1001 102.4 89.0301C102.4 88.9601 102.38 88.8901 102.35 88.8301C102.32 88.7701 102.27 88.7201 102.21 88.6901C102.14 88.6601 102.06 88.6401 101.96 88.6401H101.52V89.9401H101.68V89.4301H101.96C101.96 89.4301 101.98 89.4301 101.99 89.4301L102.27 89.9401H102.45L102.15 89.4001C102.15 89.4001 102.19 89.3901 102.2 89.3801L102.21 89.3701ZM101.95 89.2701H101.67V88.7601H101.95C102.02 88.7601 102.08 88.7701 102.12 88.7901C102.16 88.8101 102.19 88.8401 102.21 88.8801C102.23 88.9201 102.24 88.9601 102.24 89.0201C102.24 89.0801 102.24 89.1201 102.21 89.1501C102.19 89.1901 102.16 89.2201 102.12 89.2401C102.08 89.2601 102.02 89.2701 101.95 89.2701Z" fill="black"/>
<path d="M103.1 88.8901C103.06 88.7701 103 88.6601 102.93 88.5501C102.86 88.4501 102.77 88.3601 102.67 88.2901C102.57 88.2201 102.46 88.1601 102.33 88.1201C102.2 88.0801 102.08 88.0601 101.94 88.0601C101.8 88.0601 101.68 88.0801 101.55 88.1201C101.42 88.1601 101.32 88.2201 101.21 88.2901C101.11 88.3601 101.02 88.4501 100.95 88.5501C100.88 88.6501 100.82 88.7601 100.78 88.8901C100.74 89.0101 100.72 89.1401 100.72 89.2801C100.72 89.4201 100.74 89.5401 100.78 89.6701C100.82 89.7901 100.88 89.9001 100.95 90.0101C101.02 90.1201 101.11 90.2001 101.21 90.2701C101.31 90.3401 101.42 90.4001 101.55 90.4401C101.68 90.4801 101.8 90.5001 101.94 90.5001C102.08 90.5001 102.2 90.4801 102.33 90.4401C102.46 90.4001 102.56 90.3401 102.67 90.2701C102.77 90.2001 102.86 90.1101 102.93 90.0101C103 89.9101 103.06 89.8001 103.1 89.6701C103.14 89.5501 103.16 89.4201 103.16 89.2801C103.16 89.1401 103.14 89.0201 103.1 88.8901ZM102.96 89.6101C102.92 89.7201 102.87 89.8201 102.81 89.9101C102.75 90.0001 102.67 90.0801 102.58 90.1401C102.49 90.2101 102.39 90.2601 102.28 90.2901C102.17 90.3301 102.06 90.3401 101.94 90.3401C101.82 90.3401 101.71 90.3201 101.6 90.2901C101.49 90.2501 101.39 90.2001 101.31 90.1401C101.22 90.0701 101.14 90.0001 101.08 89.9101C101.01 89.8201 100.96 89.7201 100.93 89.6101C100.9 89.5001 100.88 89.3901 100.88 89.2701C100.88 89.1501 100.9 89.0401 100.93 88.9301C100.97 88.8201 101.02 88.7201 101.08 88.6301C101.15 88.5401 101.22 88.4601 101.31 88.4001C101.4 88.3301 101.5 88.2801 101.6 88.2501C101.71 88.2101 101.82 88.2001 101.94 88.2001C102.06 88.2001 102.17 88.2201 102.28 88.2501C102.39 88.2901 102.49 88.3401 102.58 88.4001C102.67 88.4701 102.75 88.5401 102.81 88.6301C102.88 88.7201 102.93 88.8201 102.96 88.9301C103 89.0401 103.01 89.1501 103.01 89.2701C103.01 89.3901 102.99 89.5001 102.96 89.6101Z" fill="black"/>
<path d="M88.7002 94.6298H97.9102L99.1802 92.6498H88.7002C89.1302 91.1298 90.5302 90.0098 92.1902 90.0098H98.5102L99.7902 88.0298H92.0502C88.9602 88.0298 86.4502 90.5398 86.4502 93.6298C86.4502 96.7198 88.9602 99.2298 92.0502 99.2298H98.6902L99.9602 97.2498H92.1902C90.5402 97.2498 89.1302 96.1398 88.7002 94.6098V94.6298Z" fill="black"/>
<path d="M45.0401 91.8398C45.0401 89.7498 43.3401 88.0498 41.2501 88.0498H31.8301V99.2498H33.9801V90.0198H41.1101C42.1101 90.0198 42.9201 90.8298 42.9201 91.8298C42.9201 92.8298 42.1201 93.6398 41.1101 93.6398H35.0401L41.4701 99.2398H44.6001L40.2701 95.6098H41.2501C43.3401 95.6098 45.0401 93.9198 45.0401 91.8298V91.8398Z" fill="black"/>
<path d="M25.0797 88.0498H18.5697C15.4797 88.0498 12.9697 90.5598 12.9697 93.6498C12.9697 96.7398 15.4797 99.2498 18.5697 99.2498H25.0797C28.1697 99.2498 30.6797 96.7498 30.6797 93.6498C30.6797 90.5498 28.1697 88.0498 25.0797 88.0498ZM24.9297 97.2698H18.7097C16.7097 97.2698 15.0797 95.6498 15.0797 93.6498C15.0797 91.6498 16.6997 90.0198 18.7097 90.0198H24.9297C26.9297 90.0198 28.5597 91.6498 28.5597 93.6498C28.5597 95.6498 26.9397 97.2698 24.9297 97.2698Z" fill="black"/>
<path d="M76.8902 88.05H74.7402V98.18C74.7402 98.46 74.8502 98.73 75.0502 98.93C75.2602 99.14 75.5302 99.25 75.8402 99.25H85.6602L86.9302 97.27H76.8902V88.04V88.05Z" fill="black"/>
<path d="M53.2301 87.9399C52.6801 87.9399 52.1901 88.1999 51.9001 88.6299L45.1201 99.2499H47.6601L53.2401 90.4099L56.2801 95.2999H50.5301L51.8001 97.2799H57.6201L58.8201 99.2599H61.3601L54.5501 88.6199C54.2601 88.1999 53.7701 87.9499 53.2401 87.9499L53.2301 87.9399Z" fill="black"/>
<path d="M62.3502 93.65C62.3502 91.65 63.9802 90.02 65.9802 90.02H72.3102L73.5702 88.04H65.8402C62.7502 88.04 60.2402 90.55 60.2402 93.64C60.2402 96.73 62.7502 99.24 65.8402 99.24H72.4802L73.7502 97.26H65.9802C63.9802 97.26 62.3502 95.64 62.3502 93.64V93.65Z" fill="black"/>
<path d="M69.15 19.1501V16.0001C69.15 14.9301 68.28 14.0601 67.21 14.0601H26.9C25.83 14.0601 24.96 14.9301 24.96 16.0001V66.2501C24.96 67.3201 25.83 68.1901 26.9 68.1901H30.02V20.8801C30.02 19.9301 30.8 19.1501 31.76 19.1501H69.15Z" fill="#8065E0"/>
<path d="M59.4502 44.5801C59.4502 46.4801 61.0102 48.0401 62.9102 48.0401H87.6902C89.5902 48.0401 91.1502 46.4801 91.1502 44.5801C91.1502 42.6801 89.5902 41.1201 87.6902 41.1201H62.9102C61.0102 41.1201 59.4502 42.6801 59.4502 44.5801Z" fill="#8065E0"/>
<path d="M33.4199 24.3102V73.2102C33.4199 74.2502 34.2699 75.1002 35.3199 75.1002H57.0699C56.9899 74.7202 56.9499 74.3302 56.9499 73.9302C56.9499 71.9102 57.9699 70.1202 59.5199 69.0402C57.9699 67.9602 56.9499 66.1702 56.9499 64.1502C56.9499 62.1302 57.9699 60.3402 59.5199 59.2602C57.9699 58.1802 56.9499 56.3902 56.9499 54.3702C56.9499 52.3502 57.9699 50.5602 59.5199 49.4802C57.9699 48.4002 56.9499 46.6102 56.9499 44.5902C56.9499 41.3002 59.6199 38.6302 62.9099 38.6302H76.8699V24.3102C76.8699 23.2602 76.0099 22.4102 74.9699 22.4102H35.3199C34.2699 22.4102 33.4199 23.2602 33.4199 24.3102Z" fill="#02B79F"/>
<path d="M87.6902 50.9102H62.9102C61.0102 50.9102 59.4502 52.4702 59.4502 54.3702C59.4502 56.2702 61.0102 57.8302 62.9102 57.8302H87.6902C89.5902 57.8302 91.1502 56.2702 91.1502 54.3702C91.1502 52.4702 89.5902 50.9102 87.6902 50.9102Z" fill="#8065E0"/>
<path d="M87.6902 70.4702H62.9102C61.0102 70.4702 59.4502 72.0302 59.4502 73.9302C59.4502 75.8302 61.0102 77.3902 62.9102 77.3902H87.6902C89.5902 77.3902 91.1502 75.8302 91.1502 73.9302C91.1502 72.0302 89.5902 70.4702 87.6902 70.4702Z" fill="#8065E0"/>
<path d="M87.6902 60.6899H62.9102C61.0102 60.6899 59.4502 62.2499 59.4502 64.1499C59.4502 66.0499 61.0102 67.6099 62.9102 67.6099H87.6902C89.5902 67.6099 91.1502 66.0499 91.1502 64.1499C91.1502 62.2499 89.5902 60.6899 87.6902 60.6899Z" fill="#8065E0"/>
</svg>
