<svg width="114" height="114" viewBox="0 0 114 114" fill="none" xmlns="http://www.w3.org/2000/svg">
<path d="M38.64 108.31H105.82C107.83 108.31 109.46 106.68 109.46 104.67C109.46 102.66 109.46 30.9898 109.46 26.1798C109.46 24.7898 108.91 23.4598 107.93 22.4798L89.76 4.30979C88.78 3.32979 87.44 2.77979 86.06 2.77979C84.52 2.77979 40.96 2.77979 38.64 2.77979C36.63 2.77979 35 4.40979 35 6.41979V104.68C35 106.69 36.63 108.32 38.64 108.32V108.31Z" fill="#8BCAFF"/>
<path d="M42.3102 104.67V6.41002C42.3102 4.40002 43.9402 2.77002 45.9502 2.77002C41.9702 2.77002 39.1702 2.77002 38.6302 2.77002C36.6202 2.77002 34.9902 4.40002 34.9902 6.41002V104.67C34.9902 106.68 36.6202 108.31 38.6302 108.31H45.9502C43.9402 108.31 42.3102 106.68 42.3102 104.67Z" fill="#8BCAFF"/>
<path d="M86.0502 2.77002C87.4402 2.77002 88.7702 3.32002 89.7602 4.30002L107.93 22.47C108.91 23.45 109.46 24.78 109.46 26.17V26.27H88.8402C87.2402 26.27 85.9502 24.98 85.9502 23.38V2.77002H86.0502Z" fill="#22A7FF"/>
<path d="M93.2702 23.38V7.81002L89.7602 4.30002C88.7802 3.32002 87.4402 2.77002 86.0502 2.77002H85.9502V23.39C85.9502 24.99 87.2402 26.28 88.8402 26.28H96.1602C94.5602 26.28 93.2702 24.99 93.2702 23.39V23.38Z" fill="#22A7FF"/>
<path d="M93.4103 42.5099H51.0403C49.5503 42.5099 48.3403 41.2999 48.3403 39.8099C48.3403 38.3199 49.5503 37.1099 51.0403 37.1099H93.4103C94.9003 37.1099 96.1103 38.3199 96.1103 39.8099C96.1103 41.2999 94.9003 42.5099 93.4103 42.5099Z" fill="white"/>
<path d="M93.4103 54.69H51.0403C49.5503 54.69 48.3403 53.48 48.3403 51.99C48.3403 50.5 49.5503 49.29 51.0403 49.29H93.4103C94.9003 49.29 96.1103 50.5 96.1103 51.99C96.1103 53.48 94.9003 54.69 93.4103 54.69Z" fill="white"/>
<path d="M93.4103 66.8702H51.0403C49.5503 66.8702 48.3403 65.6602 48.3403 64.1702C48.3403 62.6802 49.5503 61.4702 51.0403 61.4702H93.4103C94.9003 61.4702 96.1103 62.6802 96.1103 64.1702C96.1103 65.6602 94.9003 66.8702 93.4103 66.8702Z" fill="white"/>
<path d="M93.4103 79.0499H51.0403C49.5503 79.0499 48.3403 77.8399 48.3403 76.3499C48.3403 74.8599 49.5503 73.6499 51.0403 73.6499H93.4103C94.9003 73.6499 96.1103 74.8599 96.1103 76.3499C96.1103 77.8399 94.9003 79.0499 93.4103 79.0499Z" fill="white"/>
<path d="M93.4103 91.2301H51.0403C49.5503 91.2301 48.3403 90.0201 48.3403 88.5301C48.3403 87.0401 49.5503 85.8301 51.0403 85.8301H93.4103C94.9003 85.8301 96.1103 87.0401 96.1103 88.5301C96.1103 90.0201 94.9003 91.2301 93.4103 91.2301Z" fill="white"/>
<path d="M70.6401 76.3101C70.6401 89.7001 62.8901 101.28 51.6401 106.83C47.1201 109.06 42.0201 110.31 36.6401 110.31C30.8601 110.31 25.4201 108.86 20.6601 106.32L2.64014 110.31L10.4401 97.9701C5.56014 92.1001 2.64014 84.5401 2.64014 76.3101C2.64014 57.5301 17.8601 42.3101 36.6401 42.3101C39.9301 42.3101 43.1201 42.7801 46.1301 43.6501C60.2801 47.7601 70.6401 60.8201 70.6401 76.3101Z" fill="#8065E0"/>
<path d="M34.2699 83.8098H26.7799L25.4699 88.0398H19.6299L27.9399 65.3798H33.0799L41.4499 88.0398H35.5799L34.2599 83.8098H34.2699ZM32.9599 79.5898L30.5199 71.7298L28.0899 79.5898H32.9599ZM42.8299 66.8598C42.8299 66.1098 43.0999 65.4998 43.6399 65.0198C44.1799 64.5398 44.8799 64.2998 45.7399 64.2998C46.5999 64.2998 47.2999 64.5398 47.8399 65.0198C48.3799 65.4998 48.6499 66.1098 48.6499 66.8598C48.6499 67.6098 48.3799 68.2198 47.8399 68.6998C47.2999 69.1798 46.5999 69.4198 45.7399 69.4198C44.8799 69.4198 44.1799 69.1798 43.6399 68.6998C43.0999 68.2198 42.8299 67.6098 42.8299 66.8598ZM48.3999 88.0398H43.1399V71.1998H48.3999V88.0398Z" fill="white"/>
</svg>
