<svg width="114" height="114" viewBox="0 0 114 114" fill="none" xmlns="http://www.w3.org/2000/svg">
<path fill-rule="evenodd" clip-rule="evenodd" d="M46.3601 8.31982C38.7701 8.31982 32.6301 14.2698 32.6301 21.6198V30.8298H56.4001V33.3898H22.0601C14.4801 33.3898 8.33008 39.3398 8.33008 46.6898V66.6398C8.33008 73.9798 14.4801 79.9398 22.0601 79.9398H29.9801V68.6898C29.9801 61.3498 36.1301 55.3898 43.7101 55.3898H69.0601C75.4801 55.3898 80.6801 50.3498 80.6801 44.1398V21.6398C80.6801 14.2998 74.5301 8.33982 66.9501 8.33982H46.3501L46.3601 8.31982ZM43.1901 24.6898C45.8201 24.6898 47.9401 22.6298 47.9401 20.0898C47.9401 17.5498 45.8101 15.4898 43.1901 15.4898C40.5701 15.4898 38.4401 17.5498 38.4401 20.0898C38.4401 22.6298 40.5701 24.6898 43.1901 24.6898Z" fill="#8065E0"/>
<path fill-rule="evenodd" clip-rule="evenodd" d="M66.9501 104.99C74.5401 104.99 80.6801 99.0401 80.6801 91.6901V82.4801H56.9101V79.9201H91.2401C98.8301 79.9201 104.97 73.9701 104.97 66.6201V46.6701C104.97 39.3301 98.8201 33.3701 91.2401 33.3701H83.3201V44.6201C83.3201 51.9601 77.1701 57.9201 69.5901 57.9201H44.2401C37.8201 57.9201 32.6201 62.9601 32.6201 69.1701V91.6701C32.6201 99.0101 38.7701 104.97 46.3501 104.97H66.9501V104.99ZM70.1201 88.6201C67.4901 88.6201 65.3701 90.6801 65.3701 93.2201C65.3701 95.7601 67.5001 97.8201 70.1201 97.8201C72.7401 97.8201 74.8701 95.7601 74.8701 93.2201C74.8701 90.6801 72.7401 88.6201 70.1201 88.6201Z" fill="#02B79F"/>
</svg>
