<svg width="114" height="114" viewBox="0 0 114 114" fill="none" xmlns="http://www.w3.org/2000/svg">
<g clip-path="url(#clip0_350_523)">
<path d="M0.149902 92.1699L7.5899 79.5499C4.7999 75.4699 3.1999 70.7499 3.1999 65.7299C3.1999 50.2099 18.3899 37.6299 37.1299 37.6299C55.8699 37.6299 71.0599 50.2099 71.0599 65.7299C71.0599 81.2499 55.8699 93.8299 37.1299 93.8299C30.9999 93.8299 25.2599 92.4799 20.2999 90.1299L0.149902 92.1699Z" fill="#8065E0"/>
<path d="M79.3902 85.1301C73.7002 87.5401 67.2402 88.9101 60.4002 88.9101C37.2502 88.9101 18.4902 73.3701 18.4902 54.2201C18.4902 47.1601 21.0302 40.6001 25.4102 35.1201C22.7202 39.8301 21.2202 45.0901 21.2202 50.6501C21.2202 70.7701 40.9102 87.0801 65.2102 87.0801C70.1802 87.0801 74.9302 86.3901 79.3802 85.1401L79.3902 85.1301Z" fill="#306B64"/>
<path d="M113.15 84.9202L104.39 84.0302L87.0202 82.2602C85.3202 83.0602 83.5702 83.7802 81.7402 84.3902C80.9802 84.6502 80.2002 84.8902 79.4202 85.1102C79.4202 85.1102 79.4002 85.1102 79.3802 85.1102C74.9302 86.3702 70.1802 87.0502 65.2102 87.0502C40.9102 87.0502 21.2202 70.7402 21.2202 50.6202C21.2202 45.0702 22.7202 39.8002 25.4102 35.0902C32.4502 22.7402 47.6202 14.2002 65.2102 14.2002C89.5002 14.2002 109.19 30.5102 109.19 50.6202C109.19 57.1402 107.12 63.2602 103.5 68.5402L113.15 84.9002V84.9202Z" fill="#02B79F"/>
<path d="M54.11 50.1599C54.11 52.5899 53.65 54.6599 52.73 56.3699C51.81 58.0799 50.56 59.3799 48.98 60.2799C47.4 61.1799 45.63 61.6199 43.66 61.6199C41.69 61.6199 39.9 61.1699 38.32 60.2699C36.74 59.3699 35.5 58.0699 34.58 56.3599C33.66 54.6499 33.21 52.5899 33.21 50.1599C33.21 47.7299 33.67 45.6599 34.58 43.9499C35.5 42.2399 36.74 40.9399 38.32 40.0399C39.9 39.1399 41.68 38.6899 43.66 38.6899C45.64 38.6899 47.4 39.1399 48.98 40.0399C50.56 40.9399 51.81 42.2399 52.73 43.9499C53.65 45.6599 54.11 47.7299 54.11 50.1599ZM49.33 50.1599C49.33 48.5799 49.1 47.2499 48.63 46.1699C48.16 45.0899 47.5 44.2699 46.65 43.7099C45.8 43.1499 44.81 42.8699 43.66 42.8699C42.51 42.8699 41.52 43.1499 40.67 43.7099C39.82 44.2699 39.16 45.0899 38.69 46.1699C38.22 47.2499 37.99 48.5799 37.99 50.1599C37.99 51.7399 38.22 53.0699 38.69 54.1499C39.16 55.2299 39.82 56.0499 40.67 56.6099C41.52 57.1699 42.51 57.4499 43.66 57.4499C44.81 57.4499 45.8 57.1699 46.65 56.6099C47.5 56.0499 48.16 55.2299 48.63 54.1499C49.1 53.0699 49.33 51.7399 49.33 50.1599ZM42.03 53.5599H46.04L48.06 56.1499L50.04 58.4599L53.78 63.1399H49.38L46.81 59.9799L45.49 58.1099L42.04 53.5599H42.03Z" fill="white"/>
<path d="M63.8201 61.6397C62.2801 61.6397 60.9501 61.3597 59.8301 60.8097C58.7101 60.2597 57.8501 59.5097 57.2501 58.5597C56.6501 57.6097 56.3501 56.5497 56.3501 55.3797C56.3501 54.5097 56.5201 53.7297 56.8701 53.0597C57.2201 52.3897 57.7101 51.7597 58.3301 51.1897C58.9501 50.6197 59.6801 50.0497 60.5101 49.4797L64.8401 46.6397C65.4001 46.2797 65.8101 45.9097 66.0701 45.5097C66.3301 45.1097 66.4601 44.6797 66.4601 44.2197C66.4601 43.7597 66.2801 43.3697 65.9301 42.9897C65.5701 42.6097 65.0701 42.4297 64.4201 42.4297C63.9801 42.4297 63.6101 42.5297 63.2901 42.7197C62.9701 42.9097 62.7201 43.1597 62.5401 43.4697C62.3601 43.7797 62.2701 44.1197 62.2701 44.4997C62.2701 44.9597 62.4001 45.4397 62.6601 45.9197C62.9201 46.3997 63.2701 46.9097 63.7101 47.4397C64.1501 47.9697 64.6201 48.5497 65.1401 49.1697L75.7201 61.3097H70.8801L62.0501 51.4797C61.4701 50.8197 60.8901 50.1297 60.3101 49.3997C59.7301 48.6797 59.2501 47.9097 58.8701 47.0897C58.4901 46.2697 58.2901 45.3797 58.2901 44.4297C58.2901 43.3497 58.5401 42.3697 59.0501 41.5097C59.5601 40.6497 60.2601 39.9597 61.1801 39.4597C62.1001 38.9597 63.1601 38.6997 64.3801 38.6997C65.6001 38.6997 66.6001 38.9397 67.4701 39.4197C68.3401 39.8997 69.0101 40.5397 69.4701 41.3397C69.9401 42.1297 70.1701 43.0097 70.1701 43.9597C70.1701 45.0097 69.9101 45.9697 69.3901 46.8197C68.8701 47.6697 68.1401 48.4397 67.2101 49.1097L62.6601 52.3897C62.0401 52.8397 61.5901 53.2997 61.2901 53.7697C61.0001 54.2397 60.8501 54.6897 60.8501 55.1197C60.8501 55.6497 60.9801 56.1297 61.2401 56.5497C61.5001 56.9697 61.8701 57.2997 62.3501 57.5497C62.8301 57.7897 63.3901 57.9197 64.0401 57.9197C64.8201 57.9197 65.6001 57.7397 66.3701 57.3797C67.1401 57.0197 67.8301 56.5097 68.4601 55.8397C69.0901 55.1697 69.5901 54.3797 69.9701 53.4697C70.3501 52.5597 70.5401 51.5397 70.5401 50.4297H74.3901C74.3901 51.7997 74.2401 53.0197 73.9401 54.1197C73.6401 55.2097 73.2301 56.1597 72.7001 56.9697C72.1701 57.7797 71.5601 58.4397 70.8801 58.9597C70.6601 59.0997 70.4501 59.2297 70.2501 59.3497C70.0501 59.4697 69.8401 59.5997 69.6201 59.7397C68.7901 60.4097 67.8701 60.8897 66.8501 61.1897C65.8301 61.4897 64.8201 61.6397 63.8301 61.6397H63.8201Z" fill="white"/>
<path d="M81.0397 61.31H75.9897L83.6898 39H89.7697L97.4597 61.31H92.3997L86.8097 44.1H86.6397L81.0397 61.31ZM80.7197 52.54H92.6598V56.22H80.7197V52.54Z" fill="white"/>
</g>
<defs>
<clipPath id="clip0_350_523">
<rect width="113.31" height="113.31" fill="white"/>
</clipPath>
</defs>
</svg>
