<svg width="114" height="114" viewBox="0 0 114 114" fill="none" xmlns="http://www.w3.org/2000/svg">
<path fill-rule="evenodd" clip-rule="evenodd" d="M72.7801 36.6304H38.1901C36.3301 36.6304 34.8301 38.1404 34.8301 39.9904V87.0404C34.8301 88.9004 36.3401 90.4004 38.1901 90.4004H72.7801C74.6401 90.4004 76.1401 88.8904 76.1401 87.0404V39.9904C76.1401 38.1304 74.6301 36.6304 72.7801 36.6304ZM50.6801 75.0604V65.2504H60.2901V75.0604H50.6801ZM60.2901 77.9404V87.5204H50.6801V77.9404H60.2901ZM60.2901 52.2004V62.3604H50.6801V52.2004H60.2901ZM50.6801 49.3204V39.5104H60.2901V49.3204H50.6801ZM63.1701 52.2004H73.2601V62.3604H63.1701V52.2004ZM47.7901 62.3704H37.7001V52.2104H47.7901V62.3704ZM37.7101 65.2504H47.8001V75.0604H37.7101V65.2504ZM63.1701 65.2504H73.2601V75.0604H63.1701V65.2504ZM73.2601 40.0004V49.3304H63.1701V39.5204H72.7801C73.0501 39.5204 73.2601 39.7304 73.2601 40.0004ZM47.7901 39.5204V49.3304H37.7001V40.0004C37.7001 39.7304 37.9101 39.5204 38.1801 39.5204H47.7901ZM37.7101 87.0404V77.9404H47.8001V87.5204H38.1901C37.9201 87.5204 37.7101 87.3104 37.7101 87.0404ZM63.1701 87.5204V77.9404H73.2601V87.0404C73.2601 87.3104 73.0501 87.5204 72.7801 87.5204H63.1701Z" fill="#604CA8"/>
<path d="M78.7199 54.4403C86.4899 54.4403 92.7899 48.1403 92.7899 40.3703C92.7899 32.6003 86.4899 26.3003 78.7199 26.3003C70.9499 26.3003 64.6499 32.6003 64.6499 40.3703C64.6499 48.1403 70.9499 54.4403 78.7199 54.4403Z" fill="white"/>
<path d="M86.8301 52.03L90.3401 48.52L99.3401 57.52C100.31 58.49 100.31 60.06 99.3401 61.03C98.3701 62 96.8001 62 95.8301 61.03L86.8301 52.03Z" fill="black"/>
<path d="M78.6601 56.9003C69.5301 56.9003 62.1001 49.4703 62.1001 40.3403C62.1001 31.2103 69.5301 23.7803 78.6601 23.7803C87.7901 23.7803 95.2201 31.2103 95.2201 40.3403C95.2201 49.4703 87.7901 56.9003 78.6601 56.9003ZM78.6601 28.7503C72.2701 28.7503 67.0701 33.9503 67.0701 40.3403C67.0701 46.7303 72.2701 51.9303 78.6601 51.9303C85.0501 51.9303 90.2501 46.7303 90.2501 40.3403C90.2501 33.9503 85.0501 28.7503 78.6601 28.7503Z" fill="black"/>
<path d="M11.5397 11.5002C12.1897 10.8502 13.2297 10.8502 13.8797 11.5002L16.2197 13.8402C16.8697 14.4902 16.8697 15.5402 16.2197 16.1802C15.5697 16.8302 14.5297 16.8302 13.8797 16.1802L11.5397 13.8402C10.8897 13.1902 10.8897 12.1502 11.5397 11.5002Z" fill="#A4AFC1"/>
<path d="M10.9499 27.3002L13.2899 24.9602C13.9399 24.3102 14.9799 24.3102 15.6299 24.9602C16.2799 25.6102 16.2799 26.6502 15.6299 27.3002L13.2899 29.6402C12.6399 30.2902 11.5999 30.2902 10.9499 29.6402C10.2999 28.9902 10.2999 27.9502 10.9499 27.3002Z" fill="#A4AFC1"/>
<path d="M24.4201 13.8402L26.7601 11.5002C27.4101 10.8502 28.4501 10.8502 29.1001 11.5002C29.7501 12.1502 29.7501 13.1902 29.1001 13.8402L26.7601 16.1802C26.1101 16.8302 25.0601 16.8302 24.4201 16.1802C23.7701 15.5302 23.7701 14.4802 24.4201 13.8402Z" fill="#A4AFC1"/>
<path d="M103.5 84.21C100.76 84.21 98.5298 81.98 98.5298 79.24C98.5298 76.5 100.76 74.27 103.5 74.27C106.24 74.27 108.47 76.5 108.47 79.24C108.47 81.98 106.24 84.21 103.5 84.21ZM103.5 77.59C102.59 77.59 101.84 78.34 101.84 79.25C101.84 80.16 102.59 80.91 103.5 80.91C104.41 80.91 105.16 80.16 105.16 79.25C105.16 78.34 104.41 77.59 103.5 77.59Z" fill="#A4AFC1"/>
<path d="M27.3401 32.8903C27.3401 30.6103 29.2001 28.7503 31.4801 28.7503H58.0701V23.7803H31.4801C26.4601 23.7803 22.3701 27.8603 22.3701 32.8903V44.1103H27.3401V32.8903Z" fill="black"/>
<path d="M83.6301 63.8201V94.1501C83.6301 96.4301 81.7701 98.2901 79.4901 98.2901H31.4801C29.3101 98.2901 27.5401 96.6001 27.3701 94.4601H22.3901C22.5601 99.3401 26.5601 103.25 31.4801 103.25H79.4901C84.5101 103.25 88.6001 99.1701 88.6001 94.1401V63.8101H83.6301V63.8201Z" fill="black"/>
<path d="M44.8501 52.1499V85.1099C44.8501 86.5699 42.9701 87.7699 40.7101 87.7699H21.3501V90.1399H44.1401C46.4101 90.1399 48.2801 88.9299 48.2801 87.4799V54.7699C48.3401 53.4399 46.7901 52.3199 44.8501 52.1499Z" fill="#99A3A9"/>
<path d="M41.5102 88.0702H9.82023C7.73023 88.0702 5.99023 86.3402 5.99023 84.2402V53.0302C5.99023 50.9402 7.72023 49.2002 9.82023 49.2002H41.5102C43.6002 49.2002 45.3402 50.9302 45.3402 53.0302V84.2402C45.3402 86.3302 43.6702 88.0702 41.5102 88.0702Z" fill="#17864C"/>
<path d="M30.1502 79.6402L27.8202 75.3902C26.8602 73.7202 26.2702 72.5802 25.6102 71.3202H25.5502C25.0102 72.5802 24.4702 73.7102 23.5802 75.3902L21.4902 79.6402H16.9502L23.4102 68.8202L17.1302 58.1802H21.7302L24.0602 62.6002C24.7802 63.9202 25.3202 64.9902 25.8502 66.1902H25.9702C26.5702 64.8702 26.9902 63.9202 27.7002 62.6002L30.0302 58.1802H34.5702L28.1702 68.6402L34.8102 79.6402H30.1502Z" fill="white"/>
</svg>
