<svg width="114" height="114" viewBox="0 0 114 114" fill="none" xmlns="http://www.w3.org/2000/svg">
<path d="M54.8901 100.32C76.7101 100.32 94.4101 82.6303 94.4101 60.8003C94.4101 38.9703 76.7201 21.2803 54.8901 21.2803C33.0601 21.2803 15.3701 38.9803 15.3701 60.8003C15.3701 82.6203 33.0601 100.32 54.8901 100.32Z" fill="#8065E0"/>
<path d="M99.1099 60.8001H54.8799V16.5801C54.8799 15.6801 55.6299 14.9601 56.5299 15.0001C56.8499 15.0201 57.1699 15.0301 57.4899 15.0501C79.7499 16.2901 97.7799 33.4301 100.39 55.3101C100.55 56.5701 100.64 57.8601 100.69 59.1601C100.72 60.0601 100.01 60.8101 99.1099 60.8101V60.8001Z" fill="#41A5EE"/>
<path d="M99.9295 60.8003C99.9295 71.9903 95.6295 82.1703 88.5695 89.7803C87.9495 90.4403 86.9195 90.4703 86.2795 89.8403L66.7295 70.2903L73.0495 60.8103H99.9295V60.8003Z" fill="#02B79F"/>
<path d="M54.8895 86.1702C68.8995 86.1702 80.2595 74.8102 80.2595 60.8002C80.2595 46.7902 68.8995 35.4302 54.8895 35.4302C40.8795 35.4302 29.5195 46.7902 29.5195 60.8002C29.5195 74.8102 40.8795 86.1702 54.8895 86.1702Z" fill="white"/>
<path d="M24.0596 46.58C23.5896 46.58 23.1396 46.37 22.8296 45.99L16.9796 38.68H7.46965C6.59965 38.68 5.88965 37.97 5.88965 37.1C5.88965 36.23 6.59965 35.52 7.46965 35.52H17.7396C18.2196 35.52 18.6696 35.74 18.9696 36.11L25.2896 44.01C25.8396 44.69 25.7196 45.69 25.0496 46.23C24.7596 46.46 24.4096 46.58 24.0596 46.58Z" fill="#161616"/>
<path d="M7.46965 33.1402H13.7896C14.6596 33.1402 15.3696 32.4302 15.3696 31.5602V26.8202C15.3696 25.9502 14.6596 25.2402 13.7896 25.2402H7.46965C6.58965 25.2402 5.88965 25.9502 5.88965 26.8202V31.5602C5.88965 32.4302 6.58965 33.1402 7.46965 33.1402Z" fill="#41A5EE"/>
<path d="M76.2195 36.3001C75.8195 36.3001 75.4095 36.1501 75.1095 35.8301C74.4895 35.2101 74.4895 34.2101 75.1095 33.5901L84.5895 24.1101C84.8895 23.8101 85.2895 23.6401 85.6995 23.6401H102.3C103.17 23.6401 103.88 24.3501 103.88 25.2201C103.88 26.0901 103.17 26.8001 102.3 26.8001H86.3595L77.3395 35.8201C77.0295 36.1301 76.6295 36.2901 76.2295 36.2901L76.2195 36.3001Z" fill="#161616"/>
<path d="M102.3 21.2901H89.6498C88.7698 21.2901 88.0698 20.5801 88.0698 19.7101V14.9701C88.0698 14.1001 88.7698 13.3901 89.6498 13.3901H102.3C103.18 13.3901 103.88 14.1001 103.88 14.9701V19.7101C103.88 20.5801 103.18 21.2901 102.3 21.2901Z" fill="#41A5EE"/>
<path d="M89.6602 78.5298C90.1302 78.5298 90.5802 78.7398 90.8902 79.1198L96.7402 86.4298H106.26C107.13 86.4298 107.84 87.1398 107.84 88.0098C107.84 88.8798 107.13 89.5898 106.26 89.5898H95.9902C95.5102 89.5898 95.0602 89.3698 94.7602 88.9998L88.4402 81.0998C87.8902 80.4198 88.0102 79.4198 88.6802 78.8798C88.9702 78.6498 89.3202 78.5298 89.6702 78.5298H89.6602Z" fill="#161616"/>
<path d="M99.54 100.32H105.86C106.73 100.32 107.44 99.6099 107.44 98.7399V93.9999C107.44 93.1299 106.73 92.4199 105.86 92.4199H99.54C98.66 92.4199 97.96 93.1299 97.96 93.9999V98.7399C97.96 99.6099 98.66 100.32 99.54 100.32Z" fill="#41A5EE"/>
<path d="M68.42 53.3799H61.75V70.1699H68.42V53.3799Z" fill="#161616"/>
<path d="M58.0597 48.8198H51.3896V70.1798H58.0597V48.8198Z" fill="#161616"/>
<path d="M47.6895 57.4097H41.0195V70.1697H47.6895V57.4097Z" fill="#161616"/>
<path d="M71.9997 69.4502H37.4297V72.4502H71.9997V69.4502Z" fill="#161616"/>
</svg>
