<svg width="114" height="114" viewBox="0 0 114 114" fill="none" xmlns="http://www.w3.org/2000/svg">
<path d="M75.26 43.96L63.63 47.76L53.51 52.23L50.68 52.98C49.96 53.67 49.2 54.36 48.39 55.06C47.49 55.83 46.66 56.54 46.02 57.05C45.31 57.61 44.25 58.67 43.72 59.34C42.92 60.34 42.29 61.41 42.01 62.22C41.53 63.7 41.76 65.19 42.7 66.57C43.9 68.33 46.28 70.12 49.06 71.34C50.48 71.96 52.86 72.76 54.65 73.21C57.63 73.97 63.4 74.78 66.57 74.91C67.21 74.94 68.07 74.94 68.11 74.91C68.18 74.87 68.67 73.93 69.24 72.76C71.19 68.78 72.6 65.04 73.36 61.85C73.82 59.92 74.18 57.34 74.41 54.29C74.47 53.44 74.5 50.58 74.45 49.61C74.37 48.03 74.23 46.74 74.01 45.49C73.97 45.31 73.97 45.14 73.98 45.13C74.02 45.1 74.12 45.07 75.55 44.66L75.26 43.97V43.96ZM72.6 45.51C72.71 45.51 72.99 48.21 73.06 49.92C73.08 50.28 73.06 50.52 73.06 50.52C72.99 50.52 71.57 49.68 70.56 49.05C69.68 48.5 68.01 47.39 67.75 47.18C67.66 47.12 67.67 47.11 68.39 46.86C69.61 46.45 72.51 45.51 72.61 45.51H72.6ZM66.68 47.47C66.76 47.47 66.96 47.58 67.44 47.88C69.25 49.01 71.71 50.39 72.77 50.84C73.1 50.98 73.13 50.93 72.38 51.44C70.78 52.53 68.78 53.6 66.34 54.68C65.91 54.87 65.55 55.02 65.54 55.02C65.52 55.02 65.58 54.8 65.65 54.54C66.24 52.35 66.57 50.13 66.59 48.36C66.59 47.7733 66.62 47.47 66.68 47.45V47.47ZM65.45 47.93C65.5 47.98 65.47 49.95 65.4 50.49C65.24 51.77 65 52.97 64.59 54.31C64.49 54.64 64.41 54.91 64.39 54.93C64.35 54.97 63.15 53.8 62.75 53.34C62.06 52.55 61.53 51.76 61.13 50.98C60.93 50.58 60.61 49.81 60.64 49.78C60.78 49.68 65.41 47.89 65.45 47.92V47.93ZM59.7 50.19C59.7 50.19 59.72 50.19 59.73 50.19C59.75 50.21 59.81 50.35 59.86 50.51C60.14 51.27 60.77 52.4 61.32 53.12C61.92 53.91 62.7 54.76 63.35 55.31C63.56 55.49 63.75 55.65 63.78 55.68C63.83 55.73 63.85 55.72 62.42 56.27C60.76 56.9 58.95 57.54 56.87 58.2C56.37 58.36 55.88 58.52 55.38 58.68C55.3 58.71 55.33 58.66 55.56 58.3C56.59 56.69 58.15 53.53 59.03 51.3C59.18 50.91 59.33 50.53 59.36 50.44C59.4 50.32 59.44 50.27 59.55 50.21C59.61 50.19 59.67 50.17 59.7 50.17V50.19ZM57.94 50.92C57.94 50.92 57.52 51.88 57.08 52.74C56.23 54.4 55.3 56.04 54.05 58.02C53.84 58.36 53.64 58.68 53.61 58.71C53.57 58.77 53.55 58.75 53.41 58.48C53.11 57.89 52.86 57.13 52.73 56.44C52.6 55.75 52.62 54.56 52.77 53.82C52.88 53.27 52.88 53.28 53.14 53.15C54.27 52.58 57.91 50.87 57.94 50.91V50.92ZM73.11 51.54V51.91C73.11 53.87 72.9 56.56 72.59 58.52C72.54 58.86 72.49 59.14 72.48 59.15C72.48 59.15 72.23 59.08 71.93 58.99C70.61 58.58 69.18 57.97 67.89 57.26C67.04 56.79 65.8 56.03 65.83 55.99C65.83 55.99 66.21 55.79 66.64 55.56C68.36 54.66 70.02 53.7 71.45 52.74C71.99 52.38 72.8 51.8 72.97 51.64L73.11 51.53V51.54ZM51.31 54.14C51.31 54.14 51.34 54.21 51.28 54.53C51.24 54.76 51.2 55.18 51.18 55.47C51.11 56.75 51.32 57.7 51.95 59C52.13 59.36 52.27 59.66 52.26 59.67C52.2 59.72 46.38 61.43 44.55 61.93C44 62.08 43.53 62.21 43.49 62.22C43.43 62.24 43.42 62.22 43.45 62.08C43.65 60.79 44.64 59.1 46.01 57.68C46.92 56.73 47.65 56.18 48.9 55.46C49.8 54.95 51.18 54.19 51.28 54.15C51.28 54.15 51.28 54.15 51.3 54.15L51.31 54.14ZM65.02 56.59C65.02 56.59 65.24 56.7 65.49 56.85C67.37 57.94 69.99 58.95 72.22 59.47L72.42 59.51L72.14 59.67C70.97 60.32 67.13 61.92 63.2 63.39C62.63 63.6 62.07 63.81 61.96 63.86C61.85 63.9 61.76 63.93 61.76 63.92C61.76 63.91 61.92 63.6 62.12 63.23C63.22 61.17 64.33 58.67 64.89 56.93C64.96 56.76 65 56.61 65.01 56.6L65.02 56.59ZM63.62 57.05C63.62 57.05 63.56 57.24 63.47 57.45C62.71 59.31 61.7 61.33 60.42 63.6C60.09 64.18 59.82 64.65 59.81 64.65C59.8 64.65 59.54 64.49 59.22 64.3C57.36 63.16 55.7 61.75 54.62 60.39L54.46 60.2L55.26 59.98C58.13 59.2 60.56 58.35 62.98 57.32C63.32 57.18 63.6 57.06 63.61 57.06L63.62 57.05ZM72.31 60.08C72.31 60.28 71.87 62.09 71.5 63.4C71.19 64.5 70.93 65.36 70.44 66.88C70.23 67.55 70.04 68.1 70.04 68.1C70.04 68.1 69.98 68.1 69.93 68.07C67.32 67.6 64.98 66.94 62.78 66.06C62.16 65.81 61.29 65.42 61.23 65.37C61.21 65.35 61.74 65.11 62.41 64.82C66.41 63.07 70.56 61.08 71.98 60.23C72.15 60.12 72.28 60.07 72.31 60.07V60.08ZM52.26 60.77C52.26 60.77 51.16 62.4 49.6 64.59C49.05 65.35 48.42 66.25 48.18 66.59C47.94 66.92 47.58 67.45 47.38 67.77L47.01 68.34L46.61 68.01C46.14 67.62 45.34 66.8 44.97 66.34C44.21 65.4 43.7 64.41 43.5 63.5C43.4 63.08 43.4 62.87 43.5 62.84C43.63 62.8 45.98 62.25 48.18 61.74C49.4 61.46 50.82 61.12 51.33 61C51.84 60.88 52.25 60.78 52.26 60.78V60.77ZM53.38 61.2L53.66 61.52C54.93 62.94 56.22 63.98 57.78 64.9C58.06 65.06 58.27 65.2 58.25 65.21C58.19 65.25 52.82 67.16 50.33 68.02C48.93 68.51 47.78 68.91 47.77 68.91C47.76 68.91 47.68 68.86 47.59 68.8L47.43 68.69L47.68 68.32C48.51 67.12 49.54 65.81 51.8 63.09L53.36 61.22L53.38 61.2ZM60.4 66.22C60.4 66.22 60.8 66.35 61.27 66.53C62.41 66.96 63.32 67.23 64.53 67.54C66.02 67.92 68.19 68.29 69.46 68.39C69.65 68.41 69.76 68.43 69.72 68.45C69.66 68.49 68.37 68.92 67.42 69.21C65.91 69.68 61.29 71.05 57.53 72.13C56.84 72.33 56.24 72.5 56.2 72.51C56.11 72.53 55.82 72.45 55.82 72.41C55.82 72.39 56.03 72.12 56.29 71.82C57.56 70.31 58.81 68.62 59.86 67.02C60.15 66.58 60.4 66.22 60.4 66.21V66.22ZM58.85 66.26C58.85 66.26 58.23 67.27 57.14 68.99C56.67 69.72 56.16 70.55 55.97 70.84C55.79 71.12 55.53 71.56 55.38 71.81L55.12 72.26L54.99 72.22C54.67 72.13 52.45 71.35 51.86 71.11C51.13 70.82 50.37 70.47 49.81 70.17C49.11 69.79 48.23 69.23 48.3 69.21C48.32 69.21 49.52 68.88 50.97 68.48C54.82 67.43 56.96 66.83 58.36 66.39C58.62 66.31 58.83 66.25 58.84 66.26H58.85ZM69.8 68.83C69.84 68.92 68.41 72.87 67.89 74.12C67.78 74.4 67.73 74.47 67.67 74.46C67.52 74.46 65.45 74.16 64.2 73.98C62.01 73.65 58.34 73 57.41 72.79L57.2 72.75L58.51 72.45C61.32 71.82 62.68 71.47 64.05 71.05C65.78 70.52 67.5 69.86 69.23 69.05C69.5 68.93 69.73 68.83 69.79 68.82L69.8 68.83Z" fill="url(#paint0_linear_350_527)"/>
<path d="M63.2601 16.8399C63.0701 16.8099 59.9501 17.9399 57.9301 18.7599C55.2101 19.8699 53.1001 20.9199 51.8001 21.8399C51.3201 22.1799 50.7101 22.7899 50.6101 23.0299C50.5701 23.1199 50.5601 23.2199 50.5601 23.3299L51.7401 24.4499L54.5401 25.3499L61.2101 26.5499L68.8401 27.8599L68.9201 27.1999C68.9201 27.1999 68.8801 27.1999 68.8501 27.1999L67.8501 27.0399L67.6501 26.6799C66.6101 24.8499 65.4701 22.5799 64.8001 21.0499C64.2801 19.8599 63.7901 18.4899 63.5201 17.5099C63.3701 16.9099 63.3501 16.8799 63.2601 16.8699V16.8399ZM63.1201 17.2899C63.1201 17.2899 63.1601 17.5499 63.2001 17.8399C63.3501 19.0699 63.6201 20.2599 64.0501 21.5399C64.3801 22.5099 64.3801 22.4499 64.0001 22.3399C63.1001 22.0899 59.0901 21.3999 56.1701 20.9899C55.7001 20.9299 55.3101 20.8699 55.3101 20.8599C55.2701 20.8199 57.4101 19.7099 58.3501 19.2699C59.5501 18.7199 62.8601 17.3399 63.1101 17.2899H63.1201ZM54.6501 21.2299L54.9901 21.3399C56.8501 21.9699 61.5401 22.8699 64.1301 23.0799C64.4201 23.1099 64.6701 23.1299 64.6801 23.1299C64.6801 23.1299 64.4401 23.2699 64.1301 23.4199C62.8801 24.0399 61.5101 24.8099 60.5601 25.3999C60.2801 25.5799 60.0201 25.7199 59.9901 25.7199C59.9601 25.7199 59.7701 25.6799 59.5801 25.6599L59.2301 25.6099L58.3501 24.7499C56.8001 23.2499 55.5901 22.0899 55.1201 21.6499L54.6601 21.2399L54.6501 21.2299ZM54.3001 21.4999L55.5401 23.0499C56.2201 23.8999 56.9001 24.7399 57.0501 24.9199C57.2001 25.0999 57.3201 25.2499 57.3101 25.2599C57.2701 25.2899 55.5201 24.9399 54.5801 24.7299C53.6201 24.5099 53.2301 24.3999 52.6401 24.2199L52.1601 24.0599V23.9399C52.1601 23.3499 52.9201 22.4699 54.1801 21.5699L54.2901 21.4899L54.3001 21.4999ZM64.8301 23.6099C64.8301 23.6099 64.9101 23.6899 65.0101 23.9299C65.3101 24.5899 66.2401 26.3699 66.4701 26.7099C66.5401 26.8199 66.6601 26.8299 65.4201 26.6299C62.4401 26.1499 61.4801 25.9899 61.4801 25.9699C61.4801 25.9699 61.5701 25.8999 61.6801 25.8399C62.6001 25.3299 63.5401 24.6799 64.3601 23.9799C64.5601 23.8099 64.7501 23.6499 64.7801 23.6299C64.7801 23.6099 64.8101 23.5999 64.8201 23.6099H64.8301Z" fill="url(#paint1_linear_350_527)"/>
<path d="M50.6801 22.9001C50.6801 22.9001 50.4901 23.2101 50.6801 23.6701C50.7901 23.9501 51.1301 24.2901 51.5101 24.6501C51.5101 24.6501 55.4201 28.4701 55.9001 29.0101C58.0601 31.5101 59.0001 33.9701 59.0901 37.3601C59.1401 39.5401 58.7301 41.4601 57.7001 43.6801C55.8701 47.6701 52.0101 52.0801 46.0601 56.9701L46.9301 56.6801C47.4901 56.2601 48.2601 55.8101 50.0501 54.8201C54.1901 52.5501 58.8501 50.4701 64.5701 48.3201C72.8001 45.2201 86.3301 41.6001 94.0301 40.4201L94.8301 40.3001L94.7101 40.1101C94.0101 39.0201 93.5201 38.3401 92.9401 37.6201C91.2501 35.5301 89.2001 33.8301 86.7001 32.4201C83.2501 30.4901 78.8001 28.9901 73.1501 27.8701C72.0901 27.6601 69.7501 27.2501 67.8501 26.9601C63.8201 26.3401 61.2201 25.9001 58.3501 25.4101C57.3201 25.2301 55.7801 24.9701 54.7601 24.7501C54.2301 24.6401 53.2201 24.4001 52.4301 24.1301C51.8001 23.8801 50.8801 23.6401 50.6901 22.8901L50.6801 22.9001ZM52.9501 25.1001C52.9501 25.1001 53.1001 25.1401 53.2801 25.2101C53.6101 25.3201 54.0401 25.4601 54.5501 25.6001C54.9401 25.7101 55.3201 25.8101 55.7101 25.9101C56.2401 26.0401 56.6801 26.1601 56.6901 26.1601C56.7501 26.2201 57.6401 29.0601 57.9401 30.1501C58.0501 30.5601 58.1401 30.9101 58.1301 30.9101C58.1301 30.9101 58.0201 30.7701 57.9101 30.5701C56.8801 28.7601 55.2501 26.9201 53.3701 25.4401C53.1201 25.2601 52.9401 25.1101 52.9401 25.1001H52.9501ZM57.2801 26.2901C57.2801 26.2901 57.5201 26.3201 57.7501 26.3701C59.2401 26.7001 61.9301 27.2101 63.6401 27.5001C63.9301 27.5401 64.1601 27.6001 64.1601 27.6101C64.1601 27.6201 64.0501 27.6901 63.9201 27.7601C63.6301 27.9101 62.4601 28.6001 62.0701 28.8701C61.0901 29.5201 60.2101 30.2201 59.5801 30.8601C59.3301 31.1201 59.1101 31.3301 59.1101 31.3301C59.1101 31.3301 59.0601 31.1801 59.0101 31.0001C58.6901 29.7801 58.0301 27.9701 57.4401 26.6901C57.3401 26.4901 57.2601 26.3001 57.2601 26.2901H57.2801ZM64.8901 27.7401C64.9401 27.7601 65.0301 28.0601 65.2101 28.7201C65.5401 29.9901 65.6801 31.4201 65.6301 32.7501C65.6101 33.1201 65.5901 33.4601 65.5801 33.5101L65.5501 33.6001L65.0901 33.4501C64.1501 33.1501 62.6201 32.7001 61.3101 32.3301C60.5601 32.1301 59.9601 31.9401 59.9601 31.9301C59.9601 31.8801 61.0501 30.7901 61.5201 30.3701C62.4101 29.5901 64.8201 27.7201 64.9001 27.7501L64.8901 27.7401ZM65.5001 27.8301C65.5001 27.8301 69.1401 28.4301 70.7801 28.7401C72.0001 28.9801 73.7801 29.3501 73.8801 29.3901C73.9301 29.4101 73.7501 29.5101 73.1601 29.7801C70.8401 30.8301 69.1201 31.7701 67.4001 32.9101C66.9501 33.2101 66.5701 33.4601 66.5601 33.4601C66.5501 33.4601 66.5401 33.2101 66.5401 32.9001C66.5401 31.2301 66.2101 29.5401 65.5901 28.1201C65.5301 27.9801 65.4801 27.8501 65.4801 27.8401L65.5001 27.8301ZM74.8401 29.6801C74.8401 29.6801 74.7501 30.4201 74.6501 30.8401C74.3301 32.1501 73.4801 34.0901 72.4301 35.9201C72.2501 36.2501 72.0801 36.5101 72.0601 36.5201C72.0401 36.5201 71.8101 36.4001 71.5301 36.2401C70.5101 35.6401 69.3501 35.0801 68.0801 34.5501C67.7301 34.4001 67.4201 34.2801 67.4101 34.2601C67.3501 34.2101 70.1801 32.3301 71.6701 31.4401C72.8601 30.7201 74.7901 29.6501 74.8301 29.6801H74.8401ZM75.5101 29.7801C75.5901 29.7801 77.1901 30.2201 78.0201 30.4701C80.0901 31.0901 82.4601 31.9601 84.0101 32.6601L84.6501 32.9501L84.2001 33.0601C80.4201 33.9301 77.1801 34.9301 74.0601 36.2001C73.8101 36.3101 73.5801 36.3901 73.5601 36.3901C73.5401 36.3901 73.6301 36.1901 73.7401 35.9401C74.6801 33.9401 75.2901 31.8601 75.4401 30.0801C75.4401 29.9101 75.4801 29.7801 75.5001 29.7801H75.5101ZM59.5801 33.4401C59.5801 33.4401 60.8301 33.7001 61.4901 33.8901C62.4901 34.1701 64.6201 34.8801 64.6201 34.9401C64.6201 34.9401 64.3801 35.1501 64.1001 35.4001C62.9501 36.3601 61.8401 37.3701 60.5101 38.6501C60.1101 39.0301 59.7801 39.3401 59.7601 39.3401C59.7401 39.3401 59.7301 39.2901 59.7401 39.2201C59.9401 37.7401 59.9001 35.8401 59.6201 33.9201C59.5901 33.6701 59.5701 33.4601 59.5801 33.4501V33.4401ZM85.2601 33.4701C85.2601 33.4701 84.7001 34.4001 84.3301 34.9201C83.8001 35.6801 83.0301 36.6801 81.2801 38.8801C80.3601 40.0401 79.3201 41.3501 78.9801 41.7901C78.6301 42.2301 78.3401 42.6001 78.3301 42.6001C78.3201 42.6001 78.2101 42.4401 78.0801 42.2501C77.1001 40.7701 75.9201 39.4801 74.5201 38.3201C74.2601 38.1001 73.9701 37.8601 73.8701 37.7901C73.7701 37.7201 73.6901 37.6501 73.6901 37.6401C73.6901 37.6101 75.1801 36.9701 76.3201 36.5101C78.3101 35.7001 81.0101 34.7301 83.0501 34.1101C84.1101 33.7801 85.2501 33.4501 85.2701 33.4701H85.2601ZM85.9401 33.6401C85.9401 33.6401 86.1901 33.7401 86.4401 33.8901C88.5801 35.1101 90.6701 36.6901 92.3201 38.3001C92.7901 38.7601 93.9401 39.9501 93.9201 39.9601C93.9201 39.9601 93.5201 40.0001 93.0401 40.0301C89.3401 40.3101 84.6001 41.0901 80.0401 42.1901C79.7301 42.2601 79.4601 42.3201 79.4401 42.3201C79.4201 42.3201 79.7701 41.9801 80.2001 41.5601C82.8701 38.9801 84.1001 37.3601 85.5401 34.4601C85.7401 34.0301 85.9201 33.6601 85.9401 33.6301V33.6401ZM66.3601 35.6501C66.4801 35.6801 67.6301 36.2101 68.4901 36.6401C69.2801 37.0401 70.4701 37.6701 70.5301 37.7201C70.5301 37.7201 70.1201 37.9501 69.6001 38.2001C67.9501 39.0301 66.5301 39.8101 65.0501 40.7101C64.6301 40.9701 64.2801 41.1801 64.2701 41.1801C64.2301 41.1801 64.2401 41.1401 64.4801 40.7101C65.2701 39.2701 65.9001 37.5401 66.2601 35.8701C66.3001 35.7401 66.3301 35.6501 66.3601 35.6501ZM65.2201 35.8601C65.2201 35.8601 64.9501 36.9701 64.7601 37.5601C64.4001 38.6801 63.7901 40.0701 63.2001 41.1301C63.0601 41.3801 62.8501 41.7401 62.7301 41.9401L62.5101 42.2901L62.0201 41.8201C61.4501 41.2701 60.9801 40.9201 60.3801 40.6201C60.1401 40.5001 59.9601 40.3901 59.9601 40.3701C59.9601 40.3001 61.4601 38.9401 62.6201 37.9501C63.4501 37.2401 65.1901 35.8401 65.2101 35.8701L65.2201 35.8601ZM72.2101 38.7401L72.6401 39.0201C73.6201 39.6601 74.7901 40.5101 75.6701 41.2601C76.1701 41.6701 77.1401 42.5401 77.3301 42.7501L77.4401 42.8601L76.7301 43.0601C72.7001 44.1801 69.5901 45.1701 65.9601 46.5101C65.5601 46.6601 65.2101 46.7801 65.1901 46.7801C65.1401 46.7801 65.0901 46.8201 66.0001 45.9901C68.3201 43.8501 70.3801 41.5001 71.9101 39.2001L72.2201 38.7301L72.2101 38.7401ZM70.3701 39.1901C70.3701 39.1901 69.1801 40.9001 68.4601 41.8601C67.6001 43.0001 66.0701 44.9201 65.0101 46.1701C64.5701 46.6901 64.1901 47.1201 64.1701 47.1301C64.1401 47.1301 64.1301 47.0101 64.1301 46.8001C64.1301 45.7401 63.8601 44.6001 63.3801 43.6301C63.1801 43.2301 63.1401 43.1301 63.1901 43.0801C63.3601 42.9301 65.9201 41.4701 67.5301 40.6001C68.6201 40.0201 70.3301 39.1601 70.3501 39.1801L70.3701 39.1901ZM59.2501 41.9201C59.2501 41.9201 59.4801 42.0301 59.7101 42.1501C60.2701 42.4601 60.7701 42.8001 61.2201 43.1701C61.2401 43.1901 61.0101 43.3701 60.7101 43.5901C59.8701 44.1901 58.6101 45.1501 57.8701 45.7401C57.1001 46.3601 57.0701 46.3701 57.1601 46.2401C57.7401 45.3501 58.0301 44.8501 58.3401 44.2101C58.6101 43.6401 58.8901 42.9601 59.0801 42.3701C59.1501 42.1201 59.2401 41.9201 59.2601 41.9201H59.2501ZM62.2201 44.2401C62.2201 44.2401 62.3201 44.3101 62.5501 44.6601C63.0501 45.4101 63.4401 46.4101 63.5301 47.2201L63.5501 47.4001L62.3501 47.8701C60.2001 48.7101 58.2101 49.5301 56.8601 50.1501C56.4801 50.3301 55.8201 50.6401 55.3901 50.8501C54.9601 51.0701 54.6101 51.2401 54.6101 51.2301C54.6101 51.2201 54.8801 51.0201 55.2201 50.7701C57.8501 48.8601 60.1301 46.7701 61.8301 44.6801C62.0101 44.4601 62.1801 44.2601 62.2001 44.2501H62.2201V44.2401ZM60.8501 44.5701C60.8501 44.5701 59.8801 45.7401 59.2001 46.4301C57.5001 48.1601 55.8201 49.5201 53.7401 50.8401C53.4801 51.0101 53.2401 51.1601 53.2101 51.1701C53.1501 51.2101 53.2301 51.1201 54.1401 50.1201C54.7201 49.5001 55.1601 48.9701 55.6601 48.3201C55.9901 47.8901 56.0601 47.8301 56.5401 47.4801C57.8301 46.5501 60.8101 44.5301 60.8501 44.5601V44.5701Z" fill="#8065E0"/>
<path d="M22.7802 80.9798C22.6202 80.9798 22.4602 80.9998 22.2902 80.9998C19.0102 81.1698 16.8002 82.6198 15.5102 85.4298C14.4102 87.9798 14.5302 91.2998 15.5202 93.8698C16.6802 96.3698 18.5502 97.6898 21.6802 98.1898C22.3402 98.2998 22.7802 98.6598 24.0702 100.16L25.6502 102.01H28.5102L26.6102 100.09C25.5602 99.0398 24.7102 98.1198 24.7102 98.0398C24.7102 97.9598 25.1102 97.7798 25.6002 97.6398C27.2002 97.1498 28.5402 95.9198 29.4702 94.0198C30.2202 92.4898 30.3302 92.0198 30.4402 90.1298C30.7202 84.4798 27.7502 80.9498 22.7902 80.9898L22.7802 80.9798ZM25.2902 95.7498C23.9002 96.4198 21.8802 96.5598 20.5602 96.0698C19.2002 95.5698 17.8802 94.1498 17.2802 92.5498C16.6202 90.7998 16.7102 87.5698 17.4702 86.1098C18.6802 83.7898 20.2902 82.7298 22.6302 82.7298C26.1102 82.7298 28.0802 84.8598 28.3402 88.8598C28.5402 92.1998 27.4302 94.7098 25.2802 95.7498H25.2902ZM74.6702 85.7998C73.4702 85.7998 72.5502 86.2898 71.9302 87.2398L71.4402 87.9998V86.0298H69.3602V97.8398H71.4302V94.0698C71.4302 90.6198 71.4702 90.2198 71.9602 89.2698C72.6202 87.9798 73.7702 87.3298 74.8702 87.6398L75.6102 87.8598V85.8098H74.6502L74.6702 85.7998ZM62.4802 85.6998C62.0702 85.6998 61.6402 85.7498 61.2102 85.8498C58.4302 86.5798 56.8702 89.2298 56.9602 91.9698C56.9602 94.2598 57.4002 95.4098 58.5102 96.6098C60.7702 98.4698 62.8202 98.6198 65.5802 97.6198C66.0502 97.4198 66.5602 97.1898 66.5602 97.1898V95.3298L65.5802 95.8398C63.3402 96.8098 61.6602 96.8098 60.3102 95.6698C59.4502 94.7898 59.0702 93.7398 58.9002 92.5398H67.2702V90.9498C67.2702 87.7098 65.3202 85.6598 62.4702 85.7098L62.4802 85.6998ZM59.0902 90.8698C59.0902 90.8698 59.4002 88.8498 60.5502 88.0498C61.1002 87.6598 61.7402 87.4698 62.3502 87.4698C62.9602 87.4698 63.5902 87.6698 64.1002 88.0598C65.1502 88.8698 65.3302 90.8498 65.3302 90.8498H59.0902V90.8698ZM9.06021 88.7398C6.81021 87.3798 5.81021 86.3898 5.93021 85.2398C6.28021 82.0298 10.2402 82.4798 12.4402 83.6898L12.4602 81.5298C12.4602 81.5298 11.2502 80.9998 9.51021 80.9798C6.84021 80.9398 5.12021 81.8098 4.31021 83.5898C3.12021 86.2198 4.17021 88.1998 7.97021 90.4098C10.1002 91.6498 11.0402 92.7298 11.0402 93.8998C11.0402 96.3298 8.11021 97.1698 5.10021 95.6498C4.48021 95.3398 3.95021 95.0798 3.93021 95.0798C3.82021 95.7698 3.88021 97.4098 3.88021 97.4098C3.88021 97.4098 4.81021 97.7998 6.20021 98.0698C9.65021 98.7598 12.7902 97.1398 13.0802 94.5098C13.3402 92.0398 12.4502 90.7498 9.07021 88.7298L9.06021 88.7398ZM93.0402 85.6698C92.6402 85.6698 92.2102 85.7298 91.7602 85.8198C88.9902 86.5498 87.4202 89.1998 87.5302 91.9398C87.5302 94.2298 87.9702 95.3598 89.0802 96.5598C91.3402 98.4198 93.3902 98.5698 96.1702 97.5698C96.6402 97.3698 97.1502 97.1398 97.1502 97.1398V95.2798L96.1702 95.7898C93.9302 96.7598 92.2502 96.7598 90.9002 95.6098C90.0302 94.7398 89.6602 93.6998 89.4802 92.4798H97.8302V90.8898C97.8302 87.6598 95.8802 85.6098 93.0302 85.6598L93.0402 85.6698ZM89.6502 90.8498C89.6502 90.8498 89.9602 88.8298 91.1102 88.0198C91.6602 87.6298 92.2902 87.4398 92.9102 87.4398C93.5302 87.4398 94.1502 87.6398 94.6602 88.0298C95.7102 88.8398 95.8902 90.8298 95.8902 90.8298H89.6502V90.8398V90.8498ZM51.6102 88.7698C49.3602 87.4098 48.3602 86.4198 48.4902 85.2698C48.8402 82.0598 52.8002 82.5098 55.0002 83.7198L55.0202 81.5598C55.0202 81.5598 53.8102 81.0298 52.0702 81.0098C49.4002 80.9698 47.6802 81.8398 46.8702 83.6198C45.6802 86.2498 46.7502 88.2298 50.5402 90.4398C52.6702 91.6798 53.6102 92.7398 53.6102 93.9198C53.6102 96.3498 50.6902 97.2098 47.6702 95.6698C47.0502 95.3598 46.5302 95.1098 46.5002 95.1098C46.3902 95.7998 46.4502 97.4398 46.4502 97.4398C46.4502 97.4398 47.3702 97.8198 48.7502 98.0998C52.2002 98.7898 55.3402 97.1698 55.6402 94.5498C55.9002 92.0998 55.0102 90.7998 51.6402 88.7798L51.6102 88.7698ZM105.23 85.7798C104.03 85.7798 103.1 86.2698 102.49 87.2198L102 87.9698V85.9998H99.9202V97.7998H101.99V94.0298C101.99 90.5798 102.03 90.1798 102.52 89.2298C103.18 87.9398 104.33 87.2898 105.43 87.5998L106.17 87.8198V85.7698H105.21L105.23 85.7798ZM35.1102 88.6998V81.1798H33.0202V97.8298H41.8202V95.8598H35.1102V88.6898V88.6998ZM83.5002 91.0498L81.7802 95.5398L80.1202 91.0298L78.4402 86.0298H76.3002C77.6902 89.9598 79.2002 93.9698 80.7202 97.8498C81.3802 97.8698 82.0402 97.8498 82.7002 97.8498L85.0302 91.9998L87.4002 86.0298H85.3502C85.3502 86.0298 84.4502 88.3998 83.5002 91.0598V91.0498ZM39.9302 76.6398C40.2702 76.6398 40.5502 76.5298 40.7802 76.2998C41.0102 76.0698 41.1302 75.7998 41.1302 75.4698C41.1302 75.1398 41.0102 74.8498 40.7802 74.6398C40.5502 74.4198 40.2802 74.3198 39.9502 74.3198C39.6202 74.3198 39.3302 74.4298 39.1002 74.6598C38.8702 74.8898 38.7602 75.1698 38.7602 75.4898C38.7602 75.8098 38.8702 76.1098 39.1002 76.3198C39.3202 76.5398 39.6002 76.6398 39.9302 76.6398ZM39.1902 74.7298C39.3902 74.5298 39.6302 74.4398 39.9502 74.4398C40.2402 74.4398 40.4902 74.5298 40.6902 74.7298C40.8902 74.9298 41.0002 75.1698 41.0002 75.4698C41.0002 75.7698 40.8902 76.0198 40.6902 76.2198C40.4902 76.4198 40.2402 76.5198 39.9502 76.5198C39.6602 76.5198 39.4102 76.4298 39.2102 76.2198C39.0102 76.0198 38.9002 75.7598 38.9002 75.4698C38.9002 75.1798 38.9902 74.9298 39.1902 74.7298ZM39.6902 75.5798H39.8302C39.9302 75.5798 40.0202 75.6698 40.1002 75.8498L40.2602 76.2098H40.5102L40.3102 75.8098C40.2302 75.6498 40.1502 75.5498 40.0502 75.5298C40.1702 75.4998 40.2602 75.4598 40.3302 75.3798C40.4002 75.3098 40.4202 75.2198 40.4202 75.1098C40.4202 74.9898 40.3802 74.8898 40.3002 74.8298C40.2102 74.7498 40.0602 74.7098 39.8702 74.7098H39.4402V76.2198H39.6602V75.5898H39.6902V75.5798ZM39.6902 74.8798H39.8802C40.0202 74.8798 40.1102 74.9098 40.1602 74.9498C40.2102 74.9898 40.2202 75.0398 40.2202 75.1398C40.2202 75.3098 40.1102 75.3998 39.9102 75.3998H39.6802V74.8898L39.6902 74.8798ZM5.13021 75.4398C5.13021 74.9098 5.11021 74.5198 5.10021 74.2898H5.11021C5.16021 74.5598 5.23021 74.7598 5.28021 74.8998L7.29021 79.3898H7.63021L9.64021 74.8598C9.69021 74.7398 9.75021 74.5498 9.81021 74.2898H9.83021C9.79021 74.7398 9.78021 75.1298 9.78021 75.4398V79.3998H10.4702V73.5098H9.61021L7.76021 77.5998C7.69021 77.7598 7.60021 77.9998 7.48021 78.3298H7.45021C7.41021 78.1698 7.32021 77.9298 7.18021 77.6298L5.38021 73.4898H4.46021V79.3798H5.12021V75.4298H5.13021V75.4398ZM11.9702 75.4498H12.5602V79.1198H11.9702V75.4498ZM12.2702 74.1098C12.3902 74.1098 12.5002 74.0698 12.5802 73.9898C12.6602 73.9098 12.7202 73.7998 12.7202 73.6798C12.7202 73.5598 12.6802 73.4498 12.5902 73.3698C12.5102 73.2898 12.4002 73.2498 12.2802 73.2498C12.1602 73.2498 12.0502 73.2898 11.9702 73.3698C11.8902 73.4498 11.8302 73.5598 11.8302 73.6798C11.8302 73.8098 11.8702 73.9098 11.9702 73.9898C12.0602 74.0698 12.1602 74.1098 12.2802 74.1098H12.2702ZM16.8002 79.1998V78.5498C16.4802 78.7898 16.1302 78.9098 15.7602 78.9098C15.3302 78.9098 14.9802 78.7598 14.7202 78.4798C14.4702 78.1998 14.3302 77.8098 14.3302 77.3198C14.3302 76.8298 14.4702 76.4098 14.7502 76.0998C15.0202 75.7998 15.3702 75.6598 15.8002 75.6598C16.1502 75.6598 16.4902 75.7698 16.8002 75.9798V75.2898C16.5202 75.1398 16.1902 75.0698 15.8302 75.0698C15.1602 75.0698 14.6302 75.2898 14.2402 75.6998C13.8502 76.1198 13.6502 76.6798 13.6502 77.3698C13.6502 77.9798 13.8202 78.4898 14.1902 78.8798C14.5702 79.2798 15.0502 79.4898 15.6502 79.4898C16.1102 79.4798 16.4802 79.3798 16.8102 79.1898L16.8002 79.1998ZM18.5002 77.2498C18.5002 76.7698 18.6102 76.3798 18.8102 76.1098C19.0002 75.8698 19.2302 75.7498 19.5002 75.7498C19.7302 75.7498 19.8902 75.7898 20.0102 75.8898V75.1898C19.9202 75.1498 19.7802 75.1398 19.6102 75.1398C19.3702 75.1398 19.1502 75.2198 18.9602 75.3698C18.7602 75.5298 18.6002 75.7698 18.5002 76.0798H18.4802V75.2198H17.8102V79.4198H18.4802V77.2598H18.4902L18.5002 77.2498ZM22.3602 79.4898C22.9902 79.4898 23.5002 79.2898 23.8802 78.8798C24.2602 78.4798 24.4502 77.9398 24.4502 77.2598C24.4502 76.5798 24.2802 76.0498 23.9202 75.6598C23.5702 75.2698 23.0902 75.0798 22.4502 75.0798C21.8102 75.0798 21.3102 75.2698 20.9302 75.6298C20.5302 76.0298 20.3102 76.5998 20.3102 77.3298C20.3102 77.9598 20.4802 78.4898 20.8502 78.8798C21.2302 79.2798 21.7302 79.4898 22.3602 79.4898ZM21.4102 76.0598C21.6702 75.7898 22.0002 75.6598 22.4202 75.6598C22.8402 75.6598 23.1802 75.7898 23.4202 76.0598C23.6602 76.3398 23.7802 76.7498 23.7802 77.2898C23.7802 77.8298 23.6702 78.2098 23.4402 78.4798C23.2102 78.7598 22.8702 78.9098 22.4302 78.9098C21.9902 78.9098 21.6602 78.7598 21.4102 78.4798C21.1602 78.1998 21.0302 77.8098 21.0302 77.2898C21.0002 76.7798 21.1402 76.3598 21.4102 76.0598ZM27.4002 79.1198C27.6602 78.8898 27.7902 78.6098 27.7902 78.2598C27.7902 77.9498 27.6802 77.6898 27.4802 77.4898C27.3202 77.3298 27.0602 77.1798 26.7002 77.0298C26.3802 76.8898 26.1702 76.7698 26.0702 76.6798C25.9602 76.5698 25.9002 76.4398 25.9002 76.2498C25.9002 76.0798 25.9702 75.9398 26.1002 75.8298C26.2402 75.7198 26.4102 75.6698 26.6402 75.6698C27.0002 75.6698 27.3102 75.7698 27.6002 75.9698V75.2998C27.3302 75.1598 27.0302 75.0998 26.7002 75.0998C26.2702 75.0998 25.9002 75.2198 25.6302 75.4498C25.3502 75.6798 25.2102 75.9798 25.2102 76.3198C25.2102 76.6298 25.3002 76.8898 25.4802 77.0698C25.6302 77.2298 25.8802 77.3898 26.2302 77.5398C26.5702 77.6898 26.8002 77.8198 26.9202 77.9298C27.0402 78.0398 27.0902 78.1698 27.0902 78.3298C27.0902 78.7198 26.8202 78.9198 26.3002 78.9198C25.9002 78.9198 25.5302 78.7898 25.2102 78.5198V79.2498C25.5002 79.4298 25.8602 79.5098 26.2502 79.5098C26.7502 79.4798 27.1402 79.3598 27.4102 79.1198H27.4002ZM30.6102 75.0798C29.9802 75.0798 29.4702 75.2698 29.0902 75.6298C28.6902 76.0298 28.4702 76.5998 28.4702 77.3298C28.4702 77.9598 28.6402 78.4898 29.0102 78.8798C29.3902 79.2798 29.8902 79.4898 30.5202 79.4898C31.1502 79.4898 31.6602 79.2898 32.0402 78.8798C32.4202 78.4798 32.6102 77.9398 32.6102 77.2598C32.6102 76.5798 32.4302 76.0498 32.0802 75.6598C31.7202 75.2698 31.2302 75.0798 30.6102 75.0798ZM31.9202 77.2898C31.9202 77.7998 31.8102 78.2098 31.5802 78.4798C31.3502 78.7598 31.0102 78.9098 30.5702 78.9098C30.1302 78.9098 29.8002 78.7598 29.5502 78.4798C29.3002 78.1998 29.1702 77.8098 29.1702 77.2898C29.1702 76.7498 29.3002 76.3298 29.5702 76.0498C29.8202 75.7798 30.1602 75.6498 30.5802 75.6498C31.0002 75.6498 31.3302 75.7898 31.5802 76.0498C31.8002 76.3498 31.9202 76.7498 31.9202 77.2898ZM33.7402 79.3898H34.4102V75.7498H35.3902V75.1798H34.4102V74.5298C34.4102 73.9398 34.6402 73.6398 35.1102 73.6398C35.2702 73.6398 35.4302 73.6798 35.5502 73.7498V73.1398C35.4302 73.0898 35.2702 73.0698 35.0602 73.0698C34.7002 73.0698 34.4002 73.1798 34.1602 73.4098C33.8802 73.6798 33.7302 74.0298 33.7302 74.4998V75.1898H33.0202V75.7598H33.7302V79.3898H33.7402ZM36.5002 78.2498C36.5002 79.0698 36.8602 79.4898 37.6002 79.4898C37.8702 79.4898 38.0702 79.4498 38.2302 79.3498V78.7698C38.1102 78.8598 37.9602 78.9098 37.8002 78.9098C37.5702 78.9098 37.4102 78.8598 37.3202 78.7298C37.2202 78.6098 37.1702 78.4098 37.1702 78.1198V75.7498H38.2402V75.1798H37.1702V73.9398C36.9402 74.0198 36.7102 74.0898 36.5002 74.1598V75.1798H35.7702V75.7498H36.5002V78.2398V78.2498ZM108.81 85.9898C108.58 85.7698 108.31 85.6698 107.98 85.6698C107.65 85.6698 107.36 85.7798 107.13 86.0098C106.9 86.2398 106.79 86.5198 106.79 86.8398C106.79 87.1598 106.9 87.4598 107.13 87.6698C107.36 87.8898 107.64 87.9898 107.98 87.9898C108.32 87.9898 108.6 87.8798 108.83 87.6498C109.06 87.4198 109.18 87.1498 109.18 86.8198C109.17 86.4798 109.05 86.1998 108.82 85.9798L108.81 85.9898ZM108.71 87.5798C108.51 87.7798 108.26 87.8698 107.97 87.8698C107.68 87.8698 107.43 87.7798 107.23 87.5798C107.03 87.3798 106.92 87.1198 106.92 86.8198C106.92 86.5198 107.01 86.2798 107.22 86.0798C107.42 85.8798 107.66 85.7898 107.97 85.7898C108.26 85.7898 108.51 85.8798 108.71 86.0798C108.91 86.2798 109.02 86.5298 109.02 86.8198C109.02 87.1298 108.93 87.3698 108.71 87.5798ZM108.1 86.8998C108.22 86.8698 108.32 86.8198 108.38 86.7498C108.45 86.6798 108.47 86.5898 108.47 86.4798C108.47 86.3598 108.43 86.2598 108.35 86.1998C108.26 86.1198 108.11 86.0798 107.92 86.0798H107.49V87.5898H107.71V86.9598H107.84C107.93 86.9598 108.03 87.0498 108.11 87.2298L108.27 87.5898H108.53L108.33 87.1898C108.26 87.0098 108.18 86.9298 108.1 86.9098V86.8998ZM107.95 86.7598H107.72V86.2498H107.91C108.04 86.2498 108.14 86.2698 108.19 86.3198C108.24 86.3598 108.26 86.4098 108.26 86.5098C108.26 86.6798 108.15 86.7698 107.95 86.7698V86.7598ZM70.3602 75.0098H70.5502V73.4998H71.0502V73.3098H69.8602V73.4998H70.3602V75.0098ZM71.5002 73.8798C71.5002 73.7298 71.5002 73.6098 71.4902 73.5398C71.5002 73.6198 71.5302 73.6698 71.5402 73.7098L72.1202 74.9998H72.2102L72.7902 73.6898C72.7902 73.6898 72.8202 73.5998 72.8402 73.5298C72.8302 73.6598 72.8302 73.7698 72.8302 73.8498V74.9898H73.0302V73.2898H72.7902L72.2602 74.4598C72.2602 74.4598 72.2102 74.5798 72.1802 74.6798H72.1602C72.1502 74.6298 72.1202 74.5698 72.0802 74.4798L71.5502 73.2898H71.2802V74.9898H71.4702V73.8598H71.4802L71.5002 73.8798Z" fill="#231F1F"/>
<defs>
<linearGradient id="paint0_linear_350_527" x1="29.7804" y1="114.142" x2="34.2084" y2="111.526" gradientUnits="userSpaceOnUse">
<stop stop-color="#909CA9"/>
<stop offset="1" stop-color="#EDEDEE"/>
</linearGradient>
<linearGradient id="paint1_linear_350_527" x1="29.8801" y1="64.8331" x2="33.4425" y2="64.8331" gradientUnits="userSpaceOnUse">
<stop stop-color="#939FAB"/>
<stop offset="1" stop-color="#DCDEE1"/>
</linearGradient>
</defs>
</svg>
