<svg width="114" height="114" viewBox="0 0 114 114" fill="none" xmlns="http://www.w3.org/2000/svg">
<path d="M5.17016 21.7499C5.17016 25.8799 5.17016 84.9899 5.17016 89.0499C5.17016 90.7699 6.57016 92.1699 8.29016 92.1699H28.0602V35.2299C28.0602 34.0399 28.5302 32.8999 29.3802 32.0499L43.9102 17.5199C44.7502 16.6799 45.9002 16.1999 47.0902 16.1999H69.0202V4.78992C69.0202 3.06992 67.6202 1.66992 65.9002 1.66992C63.9102 1.66992 26.5702 1.66992 25.2402 1.66992C24.0502 1.66992 22.9102 2.13992 22.0602 2.98992L6.48016 18.5699C5.64016 19.4099 5.16016 20.5499 5.16016 21.7499H5.17016Z" fill="#8BCAFF"/>
<path d="M62.7401 4.79993V16.2099H69.0201V4.79993C69.0201 3.07993 67.6201 1.67993 65.9001 1.67993H59.6201C61.3401 1.67993 62.7401 3.07993 62.7401 4.79993Z" fill="#8BCAFF"/>
<path d="M16.6201 33.4399C16.6201 34.7199 17.6601 35.7499 18.9301 35.7499H28.0601V35.2199C28.0601 34.0299 28.5301 32.8899 29.3801 32.0399L30.3001 31.1199H18.9301C17.6501 31.1199 16.6201 32.1599 16.6201 33.4299V33.4399Z" fill="#0094FD"/>
<path d="M16.6201 43.8798C16.6201 45.1598 17.6601 46.1898 18.9301 46.1898H28.0601V41.5598H18.9301C17.6501 41.5598 16.6201 42.5998 16.6201 43.8698V43.8798Z" fill="#0094FD"/>
<path d="M16.6201 54.33C16.6201 55.61 17.6601 56.64 18.9301 56.64H28.0601V52.01H18.9301C17.6501 52.01 16.6201 53.05 16.6201 54.32V54.33Z" fill="#0094FD"/>
<path d="M16.6201 64.7699C16.6201 66.0499 17.6601 67.08 18.9301 67.08H28.0601V62.45H18.9301C17.6501 62.45 16.6201 63.49 16.6201 64.76V64.7699Z" fill="#0094FD"/>
<path d="M16.6201 75.2099C16.6201 76.4899 17.6601 77.5199 18.9301 77.5199H28.0601V72.8899H18.9301C17.6501 72.8899 16.6201 73.9299 16.6201 75.1999V75.2099Z" fill="#0094FD"/>
<path d="M25.3299 1.67992V19.3599C25.3299 20.7299 24.2199 21.8399 22.8499 21.8399H5.16992V21.7499C5.16992 20.5599 5.63992 19.4199 6.48992 18.5699L22.0599 2.98992C22.8999 2.14992 24.0499 1.66992 25.2399 1.66992H25.3299V1.67992Z" fill="#0094FD"/>
<path d="M16.5703 21.8299H22.8503C24.2203 21.8299 25.3303 20.7199 25.3303 19.3499V1.67993H25.2403C24.0503 1.67993 22.9103 2.14993 22.0603 2.99993L19.0503 6.00993V19.3599C19.0503 20.7299 17.9403 21.8399 16.5703 21.8399V21.8299Z" fill="#0094FD"/>
<path d="M90.8698 102.53V18.2799C90.8698 16.5599 89.4698 15.1599 87.7498 15.1599C85.7598 15.1599 48.4198 15.1599 47.0898 15.1599C45.8998 15.1599 44.7598 15.6299 43.9098 16.4799L28.3298 32.0599C27.4898 32.8999 27.0098 34.0399 27.0098 35.2399C27.0098 39.3699 27.0098 98.4799 27.0098 102.54C27.0098 104.26 28.4098 105.66 30.1298 105.66H87.7398C89.4598 105.66 90.8598 104.26 90.8598 102.54L90.8698 102.53Z" fill="#D9EDFF"/>
<path d="M81.4702 105.65H87.7502C89.4702 105.65 90.8702 104.25 90.8702 102.53V18.2799C90.8702 16.5599 89.4702 15.1599 87.7502 15.1599H81.4702C83.1902 15.1599 84.5902 16.5599 84.5902 18.2799V102.53C84.5902 104.25 83.1902 105.65 81.4702 105.65Z" fill="#D9EDFF"/>
<path d="M47.1698 15.1599V32.8399C47.1698 34.2099 46.0598 35.3199 44.6898 35.3199H27.0098V35.2299C27.0098 34.0399 27.4798 32.8999 28.3298 32.0499L43.9098 16.4699C44.7498 15.6299 45.8998 15.1499 47.0898 15.1499H47.1798L47.1698 15.1599Z" fill="#B4DBFF"/>
<path d="M38.4199 35.3099H44.6999C46.0699 35.3099 47.1799 34.1999 47.1799 32.8299V15.1599H47.0899C45.8999 15.1599 44.7599 15.6299 43.9099 16.4799L40.8999 19.4899V32.8399C40.8999 34.2099 39.7899 35.3199 38.4199 35.3199V35.3099Z" fill="#B4DBFF"/>
<path d="M38.46 46.9199C38.46 45.6399 39.5 44.6099 40.77 44.6099H77.1C78.38 44.6099 79.41 45.6499 79.41 46.9199C79.41 48.1899 78.37 49.2299 77.1 49.2299H40.77C39.49 49.2299 38.46 48.1899 38.46 46.9199Z" fill="#161616"/>
<path d="M38.46 57.3698C38.46 56.0898 39.5 55.0598 40.77 55.0598H77.1C78.38 55.0598 79.41 56.0998 79.41 57.3698C79.41 58.6498 78.37 59.6798 77.1 59.6798H40.77C39.49 59.6798 38.46 58.6398 38.46 57.3698Z" fill="#161616"/>
<path d="M38.46 67.81C38.46 66.53 39.5 65.5 40.77 65.5H77.1C78.38 65.5 79.41 66.54 79.41 67.81C79.41 69.09 78.37 70.12 77.1 70.12H40.77C39.49 70.12 38.46 69.08 38.46 67.81Z" fill="#161616"/>
<path d="M38.46 78.2499C38.46 76.9699 39.5 75.9399 40.77 75.9399H77.1C78.38 75.9399 79.41 76.9799 79.41 78.2499C79.41 79.5299 78.37 80.5599 77.1 80.5599H40.77C39.49 80.5599 38.46 79.5199 38.46 78.2499Z" fill="#161616"/>
<path d="M38.46 88.6999C38.46 87.4199 39.5 86.3899 40.77 86.3899H77.1C78.38 86.3899 79.41 87.4299 79.41 88.6999C79.41 89.9799 78.37 91.0099 77.1 91.0099H40.77C39.49 91.0099 38.46 89.9699 38.46 88.6999Z" fill="#161616"/>
<path d="M89.1498 111.29C98.9998 111.29 106.98 103.31 106.98 93.4599C106.98 83.6099 98.9998 75.6299 89.1498 75.6299C79.2998 75.6299 71.3198 83.6099 71.3198 93.4599C71.3398 103.3 79.3098 111.27 89.1498 111.29Z" fill="#02B79F"/>
<path d="M78.49 95.8798C77.66 95.0798 77.64 93.7498 78.44 92.9198C79.24 92.0898 80.57 92.0698 81.4 92.8698C81.41 92.8798 81.43 92.8998 81.44 92.9098L85.46 96.9298L96.84 85.5498C97.66 84.7298 98.9801 84.7298 99.8001 85.5498C100.62 86.3698 100.62 87.6898 99.8001 88.5098L86.9401 101.37C86.1201 102.18 84.8001 102.18 83.9801 101.37L78.49 95.8798Z" fill="#D9EDFF"/>
</svg>
