<svg width="114" height="114" viewBox="0 0 114 114" fill="none" xmlns="http://www.w3.org/2000/svg">
<path d="M19.2198 33.9202C16.3698 33.9202 14.0698 36.2202 14.0698 39.0702V94.0902C14.0698 96.9402 16.3698 99.2402 19.2198 99.2402H74.2398C77.0898 99.2402 79.3898 96.9402 79.3898 94.0902V39.0702C79.3898 36.2202 77.0898 33.9202 74.2398 33.9202H19.2198ZM29.1298 45.7002H64.3198C66.1498 45.7002 67.6198 47.1702 67.6198 48.9902V84.1802C67.6198 86.0102 66.1498 87.4702 64.3198 87.4702H29.1298C27.2998 87.4702 25.8398 86.0002 25.8398 84.1802V48.9902C25.8398 47.1602 27.3098 45.7002 29.1298 45.7002Z" fill="#8065E0"/>
<path d="M39.0797 14.0601C36.2297 14.0601 33.9297 16.3601 33.9297 19.2101V74.2301C33.9297 77.0801 36.2297 79.3801 39.0797 79.3801H94.0997C96.9497 79.3801 99.2497 77.0801 99.2497 74.2301V19.2201C99.2497 16.3701 96.9497 14.0701 94.0997 14.0701H39.0797V14.0601ZM48.9897 25.8301H84.1797C86.0097 25.8301 87.4797 27.3001 87.4797 29.1201V64.3101C87.4797 66.1401 86.0097 67.6001 84.1797 67.6001H48.9897C47.1597 67.6001 45.6997 66.1301 45.6997 64.3101V29.1301C45.6997 27.3001 47.1697 25.8401 48.9897 25.8401V25.8301Z" fill="#0097D3"/>
<path d="M19.2198 33.9202C16.3698 33.9202 14.0698 36.2202 14.0698 39.0702V50.2202H25.8398V48.9802C25.8398 47.1502 27.3098 45.6902 29.1298 45.6902H64.3198C66.1498 45.6902 67.6198 47.1602 67.6198 48.9802V50.2202H79.3898V39.0702C79.3898 36.2202 77.0898 33.9202 74.2398 33.9202H19.2198Z" fill="#8065E0"/>
<path d="M45.6802 45.7L33.9102 51.5L33.9402 45.74L45.6802 45.7Z" fill="#0077A9"/>
<path d="M67.6099 79.3999L79.3799 85.1999V79.3799L67.6099 79.3999Z" fill="#8065E0"/>
</svg>
